<?xml version="1.0" standalone="yes"?>
<svg xmlns="http://www.w3.org/2000/svg" width="1080" height="1080">
<path style="fill:#f8f7f8; stroke:none;" d="M0 0L0 1080L1080 1080L1080 0L0 0z"/>
<path style="fill:#c2c8b1; stroke:none;" d="M694 365L711 365L711 364L705 364L705 295C692.472 295.999 695 304.728 695 315C695 330.867 697.68 349.545 694 365M941 296L941 380L814 380L815 391L941 391L941 698L790 698L790 708L902 708C912.028 708 934.48 703.821 942 711C958.104 682.703 951 642.718 951 611L951 391L1023 391L1018.7 380.603L999 380L951 380L951 318C951 307.581 953.682 297.874 941 296M205 323C185.689 337.04 168.039 351.235 151.925 369C146.192 375.32 137.326 382.63 135 391L142 391L142 698L65 698L69.419 707.397L91 708L142 708L142 795L153 797C153 793.474 152.127 788.469 154.028 785.329C156.619 781.048 163.807 778.104 168 775.604C180.145 768.364 192.508 758.002 207 758L206 708L224 708L224 698L206 698L206 532L219 532L219 531C211.623 531 189.607 534.665 184.604 528.682C181.52 524.994 184.109 518.207 184.728 514C186.643 501.002 188.327 487.972 190.41 475C196.464 437.314 206.455 397.09 206.004 359C205.88 348.542 209.044 332.637 205 323M445 340L445 372L456 372L455 340L445 340M794 359L794 360C800.158 360 809.803 357.761 812 365C814.673 356.593 798.762 359 794 359M734 362L734 363L793 361L770 360.83L734 362z"/>
<path style="fill:#917d81; stroke:none;" d="M793 360L793 361L806 361L793 360z"/>
<path style="fill:#684d54; stroke:none;" d="M729 528L729 569L643 569C633.452 569 615.906 565.587 607.279 569.742C602.314 572.134 604 581.559 604 586L604 616C604 619.929 602.876 625.98 604.603 629.603C605.926 632.379 609.326 632.634 612 633L612 579L779 579L779 722L687 720C689.745 728.673 693.814 728.245 699.782 733.228C702.278 735.313 703.435 738.461 706.069 740.47C714.01 746.526 724.53 746.829 734 749L734 737C747.36 737 760.617 737.984 774 738C777.473 738.004 785.534 739.475 787.972 736.397C792.566 730.596 789 710.348 789 703L789 608L789 581C789 577.899 789.823 573.029 787.397 570.603C784.812 568.019 779.306 569 776 569L747 569L747 528C766.991 527.142 788.177 529.027 808 526.424C811.814 525.924 823.706 528.027 825.883 524.593C827.341 522.291 826.122 517.579 825.914 515C825.218 506.332 824.318 497.636 823.286 489C819.611 458.276 816.514 426.891 815 396C814.563 387.084 813.646 377.841 812.424 369C811.894 365.167 811.893 360.626 806.981 360.434C765.195 358.793 722.821 366.798 681 366.999C669.314 367.056 657.643 368.113 646 368.911C642.481 369.152 635.508 367.589 632.643 370.028C630.507 371.845 631.853 376.601 632.075 379C632.878 387.677 633.964 396.329 634.831 405C637.893 435.627 641.879 466.299 643.975 497C644.414 503.419 642.671 525.216 648.318 528.972C652.806 531.957 664.606 529 670 529C689.712 529 709.299 528 729 528z"/>
<path style="fill:#917d81; stroke:none;" d="M810 360L811 361L810 360M773 361L773 362L787 362L773 361M811 361L812 362L811 361z"/>
<path style="fill:#c2c8b1; stroke:none;" d="M209 362L209 363L222 363L209 362z"/>
<path style="fill:#917d81; stroke:none;" d="M754 362L754 363L768 363L754 362z"/>
<path style="fill:#c2c8b1; stroke:none;" d="M207.333 363.667L207.667 364.333L207.333 363.667z"/>
<path style="fill:#917d81; stroke:none;" d="M208.667 363.333L209.333 363.667L208.667 363.333z"/>
<path style="fill:#684d54; stroke:none;" d="M252 531L252 569C246.134 569 228.858 566.088 225.179 571.434C220.408 578.366 224 597.691 224 606L224 699L224 726C224 729.001 223.174 733.866 225.179 736.397C227.803 739.71 237.223 738 241 738C256.385 738 271.623 737 287 737L287 756C266.753 760.758 242.905 759 222 759C214.148 759 204.649 757.553 197 759.418C190.376 761.033 183.759 766.283 178 769.811C171.62 773.719 156.609 779.048 153.603 786.185C152.074 789.816 153 795.123 153 799L287 797L323 797L337.66 795.632L341.79 785L348 757L332 755L332 736L356 735L361 719L320 720.039L236 722L236 579L402 579L402 646L403 646C414.991 636.198 409 604.345 409 589C409 584.119 411.21 572.283 405.772 569.742C396.086 565.218 376.677 569 366 569L269 569L269 544C269 540.899 268.178 536.029 270.603 533.603C274.641 529.565 285.978 532.352 291 532.83C307.639 534.414 325.282 534 342 534C346.933 534 361.642 536.987 363.852 531.772C368.182 521.555 367.576 506.057 369.13 495L380.13 416C381.433 406.654 382.926 397.339 384.271 388C384.702 385.004 386.23 380.27 384.651 377.434C382.894 374.277 377.981 375.12 375 374.911C365.711 374.259 356.249 373.806 347 372.714C312.802 368.677 277.413 367.481 243 365.961C234.657 365.592 226.358 364.217 218 363.986C215.294 363.911 211.047 362.671 208.858 364.782C203.303 370.138 204.17 390.438 202.92 398C197.805 428.942 193.905 460.077 188.753 491C187.256 499.989 185.82 508.994 184.424 518C183.978 520.88 182.387 525.973 184.643 528.397C187.931 531.93 198.57 530 203 530C219.342 530 235.626 531 252 531z"/>
<path style="fill:#917d81; stroke:none;" d="M212 363L212 364L223 364L212 363z"/>
<path style="fill:#c2c8b1; stroke:none;" d="M223 363L223 364L236 364L223 363M714 363L714 364L733 364L714 363z"/>
<path style="fill:#917d81; stroke:none;" d="M733 363L733 364L748 364L733 363M225 364L225 365L311 370L287 367.83L225 364z"/>
<path style="fill:#c2c8b1; stroke:none;" d="M238 364L238 365L249 365L238 364z"/>
<path style="fill:#917d81; stroke:none;" d="M711 364L711 365L728 365L711 364M207.333 365.667L207.667 366.333L207.333 365.667z"/>
<path style="fill:#c2c8b1; stroke:none;" d="M254 365L254 366L263 366L254 365M675 365L675 366L688 366L675 365z"/>
<path style="fill:#917d81; stroke:none;" d="M631 369L631 370C654.78 364.339 684.539 366 709 366L684 365.911L631 369M812 365L812 370L813 370L812 365z"/>
<path style="fill:#c2c8b1; stroke:none;" d="M269 366L269 367L276 367L269 366M655 366L655 367L666 367L655 366M284 367L284 368L289 368L284 367M636 367L636 368L645 368L636 367M297 368L297 369L303 369L297 368M631 368L632 369L631 368z"/>
<path style="fill:#917d81; stroke:none;" d="M206 369L206 374L207 374L206 369z"/>
<path style="fill:#c2c8b1; stroke:none;" d="M311 369L311 370L316 370L311 369z"/>
<path style="fill:#917d81; stroke:none;" d="M314 370L314 371L325 371L314 370z"/>
<path style="fill:#c2c8b1; stroke:none;" d="M325 370L325 371L329 371L325 370M630.333 370.667L630.667 371.333L630.333 370.667z"/>
<path style="fill:#917d81; stroke:none;" d="M782 370L782 371L791 371L782 370z"/>
<path style="fill:#fe6395; stroke:none;" d="M641 378L648.166 441L656 516L813 512L800 370L703 374.961L641 378z"/>
<path style="fill:#c2c8b1; stroke:none;" d="M813 370L813 376L814 376L813 370z"/>
<path style="fill:#917d81; stroke:none;" d="M331 371L331 372L338 372L331 371z"/>
<path style="fill:#c2c8b1; stroke:none;" d="M338 371L338 372L343 372L338 371z"/>
<path style="fill:#917d81; stroke:none;" d="M761 371L761 372L770 372L761 371M800 371L800 375L801 375L800 371M345 372L345 373L352 373L345 372z"/>
<path style="fill:#c2c8b1; stroke:none;" d="M352 372L352 373L362 373L352 372M415 372L413 380L387 380C386.291 375.556 384.394 374.335 380 374L380 375C388.504 376.356 385.271 384.68 385 391L413 391L413 495L413 522C413 525.287 412.265 529.875 414.603 532.566C419.543 538.251 438.003 535 445 535L445 569L456 569C454.19 563.569 454.239 536.31 457 537C449.258 526.266 422.107 542.351 415.028 530.772C412.983 527.428 414 521.755 414 518L414 487C414 448.662 414.078 409.945 415 372z"/>
<path style="fill:#917d81; stroke:none;" d="M414 376L415 376L418 373L414 376z"/>
<path style="fill:#684d54; stroke:none;" d="M468 569L429 569L414.742 570.742L413 590L413 642L422.972 637.351L424 621L424 579C436.044 579 456.792 574.941 467.867 579.603C471.807 581.262 473.649 586.914 477.015 589.606C482.777 594.215 491.785 595.91 499 595.996C514.488 596.181 528.728 592.459 543 586.547C547.294 584.768 550.656 580.443 555.039 579.317C565.722 576.575 579.964 579 591 579L591 612L591.603 625.721L599 629L599 585C599 580.91 600.499 572.885 596.566 570.179C593.577 568.121 588.428 569 585 569L556 569C557.052 560.722 558.183 537.38 567.133 533.603C575.351 530.136 597.497 538.522 602.972 530.566C607.739 523.641 604 503.358 604 495L604 409C604 400.538 607.425 382.512 602.972 375.228C598.591 368.062 573.574 372 566 372L455 372C445 372 434.999 371.948 425 372.001C421.108 372.021 416.545 371.916 414.742 376.109C410.881 385.086 414 401.265 414 411L414 493C414 502.275 410.273 521.821 415.028 529.852C417.27 533.639 422.239 532.998 426 533C433.826 533.004 446.626 530.537 453.867 533.603C457.733 535.241 458.382 540.436 459.424 544C461.916 552.516 464.794 560.734 468 569z"/>
<path style="fill:#917d81; stroke:none;" d="M600 372L600 373C608.267 379.886 604 402.853 604 413L604 530L605 530L605 411C605 401.605 609.425 376.754 600 372z"/>
<path style="fill:#c2c8b1; stroke:none;" d="M602 372L603 373L602 372z"/>
<path style="fill:#917d81; stroke:none;" d="M729 372L730 373L729 372M732 372L733 373L732 372M734 372L734 373L750 373L734 372M218 373L218 374L227 374L218 373M357 373L357 374L366 374L357 373z"/>
<path style="fill:#c2c8b1; stroke:none;" d="M366 373L366 374L379 374L366 373M603 373L604 374L603 373z"/>
<path style="fill:#917d81; stroke:none;" d="M631 373L631 378L632 378L631 373M708 373L709 374L708 373M710 373L710 374L729 374L710 373z"/>
<path style="fill:#fe6395; stroke:none;" d="M218 374L201 515L358 520L376 384L218 374z"/>
<path style="fill:#917d81; stroke:none;" d="M229 374L229 375L243 375L229 374M371 374L371 375L380 375L371 374z"/>
<path style="fill:#c2c8b1; stroke:none;" d="M604 374L605 375L604 374z"/>
<path style="fill:#917d81; stroke:none;" d="M666 375L666 376L708 375C696.758 370.283 678.152 375 666 375M205 375L205 381L206 381L205 375M217 375L217 380L218 380L217 375M244 375L244 376L259 376L244 375M383.667 375.333L384.333 375.667L383.667 375.333M645 376L645 377L666 377L645 376M260 376L260 377L274 377L260 376M385.333 376.667L385.667 377.333L385.333 376.667M813 376L813 381L814 381L813 376M275 377L275 378L289 378L275 377M641.667 377.333L642.333 377.667L641.667 377.333M291 378L291 379L303 379L291 378z"/>
<path style="fill:#c2c8b1; stroke:none;" d="M631 378C625.089 382.478 612.251 380 605 380L605 391L633 392L631 378z"/>
<path style="fill:#917d81; stroke:none;" d="M307 379L307 380L318 380L307 379M385 379L385 386L386 386L385 379M323 380L323 381L332 381L323 380M413 380L413 391L414 391L413 380M641 380L641 385L642 385L641 380M339 381L339 382L347 382L339 381M801 381L801 386L802 386L801 381M204 382L204 388L205 388L204 382M216 382L216 388L217 388L216 382M354 382L354 383L361 383L354 382M632 382L632 389L633 389L632 382M368 383L368 384L375 384L368 383M421 383L421 517L422 517L422 423C422 411.58 425.408 393.504 421 383z"/>
<path style="fill:#fe6395; stroke:none;" d="M422 383L422 518L456 518C455.246 508.432 456.495 502.563 461 494C454.432 488.567 457.969 484.263 464 480C464.113 473.011 469.457 469.039 476 468L475 464L483 467L484 460L495 461L494 453C497.42 453.905 501.372 455.723 504.91 454.393C508.321 453.112 510.118 449.053 514.004 448.778C517.405 448.537 519.873 451.471 523 452.249C528.599 453.643 531.765 452.584 534 459C539.43 459.019 547.864 461.061 541 467L541 470C546.98 473.939 556.684 479.294 559.782 486.004C561.82 490.42 559.424 496.208 560.529 501C564.152 516.703 577.697 522.181 592.852 517.682C599 515.857 596 494.407 596 489L596 410C596 404.761 598.749 387.475 594.397 384.028C591.615 381.825 585.328 383 582 383L549 383L422 383z"/>
<path style="fill:#917d81; stroke:none;" d="M595 383L596 384L595 383M376.333 384.667L376.667 385.333L376.333 384.667M384 386L384 392L385 392L384 386M814 386L814 391L815 391L814 386M203 388L203 395L204 395L203 388M375 388L374 402L375 402L375 388M215 389L215 397L216 397L215 389M642 389L642 394L643 394L642 389z"/>
<path style="fill:#f8f7f8; stroke:none;" d="M385 391C384.719 404.625 381.256 418.528 379.272 432C375.988 454.289 373.486 476.687 370.271 499C369.022 507.666 367.803 516.356 366.41 525C365.889 528.234 365.764 532.99 362.697 534.972C356.178 539.185 338.447 536.164 331 535.286C311.218 532.951 289.935 534 270 534L270 569L373 569L398 569L408.397 570.603L410 590L410 643L411 643C415.675 627.184 412 605.51 412 589C412 584.4 409.922 572.961 414.318 570.028C420.622 565.821 437.502 569 445 569L445 535C437.587 535 419.63 538.284 414.603 531.772C409.055 524.585 413 502.915 413 494L413 391L385 391M605 391L605 488C605 499.782 608.71 519.031 604.258 529.956C599.473 541.698 575.421 531.379 566.278 535.603C558.811 539.054 558.361 561.776 557 569L588 569C591.342 569 596.653 568.069 598.821 571.318C600.998 574.58 600 580.28 600 584L600 615C600 620.296 598.212 627.673 604 630L604 586L605.603 570.603L624 569L674 569L693.972 567.397L695 557L695 530C683.67 530.234 672.39 531 661 531C657.131 531 650.633 532.211 647.514 529.397C641.814 524.254 643.583 506.261 642.714 499C639.495 472.076 638.115 444.874 634.576 418C633.882 412.732 635.504 395.281 631.397 392.028C626.554 388.192 611.075 391 605 391z"/>
<path style="fill:#917d81; stroke:none;" d="M802 391L802 396L803 396L802 391z"/>
<path style="fill:#f8f7f8; stroke:none;" d="M815 391C821.132 424.028 822.632 459.49 825.089 493C825.576 499.646 831.228 521.465 825.552 526.062C820.537 530.123 809.037 528 803 528C784.292 528 765.725 529 747 529L747 569L777 569C780.306 569 785.812 568.019 788.397 570.603C793.441 575.648 790 596.088 790 603L790 698L941 698L941 391L815 391z"/>
<path style="fill:#c2c8b1; stroke:none;" d="M384 392L384 398L385 398L384 392z"/>
<path style="fill:#917d81; stroke:none;" d="M633 392L633 398L634 398L633 392M383 393L379 429L380 429C380.214 418.637 386.988 402.593 383 393z"/>
<path style="fill:#c2c8b1; stroke:none;" d="M815 393L815 397L816 397L815 393z"/>
<path style="fill:#917d81; stroke:none;" d="M202 395L202 401L203 401L202 395M214 397L214 405L215 405L214 397M815 397L815 402L816 402L815 397z"/>
<path style="fill:#c2c8b1; stroke:none;" d="M633 398L633 407L634 407L633 398z"/>
<path style="fill:#917d81; stroke:none;" d="M643 398L643 403L644 403L643 398z"/>
<path style="fill:#c2c8b1; stroke:none;" d="M383 400L383 405L384 405L383 400z"/>
<path style="fill:#917d81; stroke:none;" d="M803 401L803 407L804 407L803 401M201 402L201 407L202 407L201 402M634 402L634 408L635 408L634 402M373 403L373 410L374 410L373 403z"/>
<path style="fill:#c2c8b1; stroke:none;" d="M816 403L816 407L817 407L816 403z"/>
<path style="fill:#917d81; stroke:none;" d="M213 405L213 413L214 413L213 405z"/>
<path style="fill:#c2c8b1; stroke:none;" d="M382 407L382 411L383 411L382 407z"/>
<path style="fill:#917d81; stroke:none;" d="M644 407L644 411L645 411L644 407M816 407L816 415L817 415L816 407z"/>
<path style="fill:#c2c8b1; stroke:none;" d="M634 408L635 428L636 428L634 408z"/>
<path style="fill:#917d81; stroke:none;" d="M200 409L200 414L201 414L200 409M372 410L372 417L373 417L372 410M804 411L804 418L805 418L804 411M635 412L635 418L636 418L635 412M212 413L212 421L213 421L212 413z"/>
<path style="fill:#c2c8b1; stroke:none;" d="M817 414L817 418L818 418L817 414M381 415L381 418L382 418L381 415z"/>
<path style="fill:#917d81; stroke:none;" d="M199 416L199 420L200 420L199 416M645 416L645 420L646 420L645 416M371 418L371 424L372 424L371 418M817 418L817 427L818 427L817 418M211 421L211 429L212 429L211 421M636 421L636 429L637 429L636 421M198 422L198 426L199 426L198 422z"/>
<path style="fill:#c2c8b1; stroke:none;" d="M380 422L380 425L381 425L380 422z"/>
<path style="fill:#917d81; stroke:none;" d="M805 423L805 429L806 429L805 423z"/>
<path style="fill:#c2c8b1; stroke:none;" d="M818 424L818 428L819 428L818 424z"/>
<path style="fill:#917d81; stroke:none;" d="M370 425L370 431L371 431L370 425M646 425L646 430L647 430L646 425M818 428L818 438L819 438L818 428M197 429L197 432L198 432L197 429z"/>
<path style="fill:#c2c8b1; stroke:none;" d="M379.333 429.667L379.667 430.333L379.333 429.667M636 429L638 458L639 458L636 429z"/>
<path style="fill:#917d81; stroke:none;" d="M210 430L210 436L211 436L210 430M378 430L378 436L379 436L378 430M637 431L637 439L638 439L637 431M806 432L806 440L807 440L806 432M369 433L369 438L370 438L369 433M647 434L648 452L649 452L647 434z"/>
<path style="fill:#c2c8b1; stroke:none;" d="M819 434L819 439L820 439L819 434z"/>
<path style="fill:#917d81; stroke:none;" d="M196 435L196 439L197 439L196 435z"/>
<path style="fill:#c2c8b1; stroke:none;" d="M378.333 436.667L378.667 437.333L378.333 436.667z"/>
<path style="fill:#917d81; stroke:none;" d="M377 439L377 443L378 443L377 439M819 439L819 449L820 449L819 439M368 440L368 445L369 445L368 440M209 441L209 444L210 444L209 441M638 441L638 449L639 449L638 441M195 442L195 445L196 445L195 442M807 442L807 451L808 451L807 442z"/>
<path style="fill:#c2c8b1; stroke:none;" d="M377.333 443.667L377.667 444.333L377.333 443.667M820 444L820 451L821 451L820 444z"/>
<path style="fill:#917d81; stroke:none;" d="M376 445L376 449L377 449L376 445M194 448L194 451L195 451L194 448M367 448L367 452L368 452L367 448M512 448L513 449L512 448M208 449L208 452L209 452L208 449z"/>
<path style="fill:#c2c8b1; stroke:none;" d="M376 449L376 454L377 454L376 449z"/>
<path style="fill:#917d81; stroke:none;" d="M639 450L644 514L645 514L641.286 469L639 450M820 451L820 460L821 460L820 451M375 452L375 456L376 456L375 452M649 452L650 471L651 471L649 452M808 452L808 462L809 462L808 452M531 453L532 454L531 453M193 454L193 458L194 458L193 454M532 454L533 455L532 454z"/>
<path style="fill:#c2c8b1; stroke:none;" d="M821 454L821 463L822 463L821 454z"/>
<path style="fill:#917d81; stroke:none;" d="M366 455L366 459L367 459L366 455M501.667 455.333L502.333 455.667L501.667 455.333M207 456L207 460L208 460L207 456z"/>
<path style="fill:#c2c8b1; stroke:none;" d="M375 456L371 491L372 491C372.209 480.862 378.907 465.398 375 456z"/>
<path style="fill:#917d81; stroke:none;" d="M374 458L374 463L375 463L374 458M494 458L495 459L494 458M491 460L492 461L491 460M192 461L192 466L193 466L192 461M487.667 461.333L488.333 461.667L487.667 461.333z"/>
<path style="fill:#c2c8b1; stroke:none;" d="M639 461L639 468L640 468L639 461z"/>
<path style="fill:#917d81; stroke:none;" d="M365 462L365 465L366 465L365 462M206 463L206 467L207 467L206 463M809 463L810 485L811 485L809 463M821 463L821 470L822 470L821 463M475 464L476 465L475 464M373 465L373 470L374 470L373 465z"/>
<path style="fill:#c2c8b1; stroke:none;" d="M822 465L822 474L823 474L822 465z"/>
<path style="fill:#917d81; stroke:none;" d="M191 467L191 473L192 473L191 467M476 467L477 468L476 467M364 469L364 472L365 472L364 469M469 469L470 470L469 469M542 470L543 471L542 470M205 471L205 475L206 475L205 471M651 471L651 480L652 480L651 471M372 472L372 477L373 477L372 472z"/>
<path style="fill:#c2c8b1; stroke:none;" d="M640 472L640 478L641 478L640 472z"/>
<path style="fill:#917d81; stroke:none;" d="M190 474L190 480L191 480L190 474M822 474L822 481L823 481L822 474z"/>
<path style="fill:#c2c8b1; stroke:none;" d="M823 475L825 506L826 506L823 475z"/>
<path style="fill:#917d81; stroke:none;" d="M363 476L363 479L364 479L363 476M463 476L464 477L463 476M550 476L551 477L550 476M204 478L204 483L205 483L204 478M464 478L465 479L464 478M371 479L371 484L372 484L371 479M189 480L189 487L190 487L189 480M652 481L652 489L653 489L652 481M362 483L362 488L363 488L362 483z"/>
<path style="fill:#c2c8b1; stroke:none;" d="M641 483L641 488L642 488L641 483z"/>
<path style="fill:#917d81; stroke:none;" d="M811 485L811 495L812 495L811 485M823 485L823 491L824 491L823 485M203 486L203 491L204 491L203 486M370 486L364 533L365 533L369.271 502L370 486M456 486L457 487L456 486M188 487L188 493L189 493L188 487M361 490L361 498L362 498L361 490M653 491L653 497L654 497L653 491z"/>
<path style="fill:#c2c8b1; stroke:none;" d="M370 492L370 498L371 498L370 492z"/>
<path style="fill:#917d81; stroke:none;" d="M202 493L202 499L203 499L202 493M460 493L461 494L460 493z"/>
<path style="fill:#c2c8b1; stroke:none;" d="M642 493L642 498L643 498L642 493z"/>
<path style="fill:#917d81; stroke:none;" d="M187 494L187 499L188 499L187 494M812 495L812 506L813 506L812 495M824 496L824 501L825 501L824 496M360 498L360 505L361 505L360 498z"/>
<path style="fill:#c2c8b1; stroke:none;" d="M369 500L369 505L370 505L369 500z"/>
<path style="fill:#917d81; stroke:none;" d="M654 500L654 506L655 506L654 500M186 501L186 506L187 506L186 501M201 501L201 508L202 508L201 501M456 502L457 503L456 502z"/>
<path style="fill:#c2c8b1; stroke:none;" d="M643 504L643 508L644 508L643 504z"/>
<path style="fill:#917d81; stroke:none;" d="M359 505L359 512L360 512L359 505M825 506L825 512L826 512L825 506z"/>
<path style="fill:#c2c8b1; stroke:none;" d="M368 507L368 511L369 511L368 507M826 507L826 517L827 517L826 507z"/>
<path style="fill:#917d81; stroke:none;" d="M185 508L185 512L186 512L185 508M200 509L200 515L201 515L200 509M564 509L565 510L564 509M655 510L655 515L656 515L655 510M565 511L566 512L565 511M813 511L814 512L813 511M358 512L358 520L359 520L358 512M794 512L794 513L810 513L794 512M811 512L812 513L811 512M566 513L567 514L566 513M753 513L753 514L773 514L753 513z"/>
<path style="fill:#c2c8b1; stroke:none;" d="M644 514L644 518L645 518L644 514z"/>
<path style="fill:#917d81; stroke:none;" d="M711 514L711 515L731 515L711 514M732.667 514.333L733.333 514.667L732.667 514.333M184 515L184 518L185 518L184 515M203 515L204 516L203 515M205 515L205 516L219 516L205 515z"/>
<path style="fill:#c2c8b1; stroke:none;" d="M367 515L367 518L368 518L367 515z"/>
<path style="fill:#917d81; stroke:none;" d="M669 515L669 516L690 516L669 515M691 515L692 516L691 515M693 515L694 516L693 515M229 516L229 517L248 517L229 516M257 517L257 518L276 518L257 517M568 517L569 518L568 517M595 517L596 518L595 517M826 517L826 522L827 522L826 517M283 518L283 519L306 519L283 518M645 518L645 524L646 524L645 518M310 519L310 520L334 520L310 519M335 520L335 521L358 521L335 520M183 521L183 525L184 525L183 521z"/>
<path style="fill:#c2c8b1; stroke:none;" d="M827 521L827 525L828 525L827 521M366 522L366 525L367 525L366 522M645 524L645 527L646 527L645 524z"/>
<path style="fill:#917d81; stroke:none;" d="M826 525L825 527L826 525M747 528L747 529L824 527L801 526.985L747 528z"/>
<path style="fill:#c2c8b1; stroke:none;" d="M826 526L827 527L826 526M807 527L807 528L823 528L807 527z"/>
<path style="fill:#917d81; stroke:none;" d="M183 528L184 529L183 528M646 528C650.223 533.977 662.706 530.521 669 530.089C688.714 528.739 709.259 529 729 529L729 528L671 529L646 528z"/>
<path style="fill:#c2c8b1; stroke:none;" d="M761 528L761 529L779 529L761 528z"/>
<path style="fill:#917d81; stroke:none;" d="M184 529L185 530L184 529z"/>
<path style="fill:#c2c8b1; stroke:none;" d="M365.333 529.667L365.667 530.333L365.333 529.667M712 529L712 530L729 530L712 529z"/>
<path style="fill:#917d81; stroke:none;" d="M185 530L185 531L252 532L230 530.996L185 530M414 530L417 533L414 530z"/>
<path style="fill:#c2c8b1; stroke:none;" d="M604 530L605 531L604 530M647 530L648 531L647 530M665 530L665 531L689 531L665 530M695 530L694 569L705 569L705 530L695 530z"/>
<path style="fill:#f8f7f8; stroke:none;" d="M705 530L705 569L729 569L729 530L705 530z"/>
<path style="fill:#917d81; stroke:none;" d="M603 531L564 534L564 535L604 532L603 531z"/>
<path style="fill:#f8f7f8; stroke:none;" d="M206 532L206 698L224 698L224 603C224 596.088 220.559 575.648 225.603 570.603C230.021 566.185 246.029 569 252 569L252 533L206 532z"/>
<path style="fill:#c2c8b1; stroke:none;" d="M228 532L228 533L252 533L228 532z"/>
<path style="fill:#917d81; stroke:none;" d="M269 569L270 569L270 533L289 533C285.383 531.482 272.786 530.121 270.028 533.603C268.088 536.052 269 541.09 269 544L269 569z"/>
<path style="fill:#c2c8b1; stroke:none;" d="M603 532L604 533L603 532M270 533L270 534L295 534L270 533z"/>
<path style="fill:#917d81; stroke:none;" d="M295 533L295 534L323 534L295 533z"/>
<path style="fill:#c2c8b1; stroke:none;" d="M364 533L345 535L297 534L297 535C314.392 535 331.656 536 349 536C352.233 536 364.78 537.732 364 533z"/>
<path style="fill:#917d81; stroke:none;" d="M417 533L417 534L456 534C445.726 529.689 428.172 533 417 533z"/>
<path style="fill:#c2c8b1; stroke:none;" d="M601.667 533.333L602.333 533.667L601.667 533.333z"/>
<path style="fill:#917d81; stroke:none;" d="M332 534L332 535L358 535L332 534M362.667 534.333L363.333 534.667L362.667 534.333M456.333 534.667L456.667 535.333L456.333 534.667z"/>
<path style="fill:#c2c8b1; stroke:none;" d="M565 534L565 535L601 535C591.441 530.989 575.387 534 565 534M564 535L565 536L564 535z"/>
<path style="fill:#f8f7f8; stroke:none;" d="M455 536L455 559L456.603 567.972L466 569C465.083 559.799 461.089 542.971 455 536z"/>
<path style="fill:#917d81; stroke:none;" d="M457.333 537.667L457.667 538.333L457.333 537.667M563 537L564 538L563 537z"/>
<path style="fill:#c2c8b1; stroke:none;" d="M563 538L564 539L563 538M457 539L458 540L457 539z"/>
<path style="fill:#917d81; stroke:none;" d="M562 539L563 540L562 539M458.333 540.667L458.667 541.333L458.333 540.667z"/>
<path style="fill:#c2c8b1; stroke:none;" d="M562.333 540.667L562.667 541.333L562.333 540.667M458.333 542.667L458.667 543.333L458.333 542.667z"/>
<path style="fill:#917d81; stroke:none;" d="M561 542L562 543L561 542z"/>
<path style="fill:#c2c8b1; stroke:none;" d="M561 543L558 561L559 561L561 543z"/>
<path style="fill:#917d81; stroke:none;" d="M459 544L460 545L459 544z"/>
<path style="fill:#c2c8b1; stroke:none;" d="M459.333 545.667L459.667 546.333L459.333 545.667z"/>
<path style="fill:#917d81; stroke:none;" d="M560 545L561 546L560 545M460 547L461 548L460 547z"/>
<path style="fill:#c2c8b1; stroke:none;" d="M460.333 548.667L460.667 549.333L460.333 548.667z"/>
<path style="fill:#917d81; stroke:none;" d="M559.333 548.667L559.667 549.333L559.333 548.667M461 550L462 551L461 550z"/>
<path style="fill:#c2c8b1; stroke:none;" d="M461 551L462 552L461 551z"/>
<path style="fill:#917d81; stroke:none;" d="M558.333 553.667L558.667 554.333L558.333 553.667M462 554L463 555L462 554M463 557L464 558L463 557z"/>
<path style="fill:#c2c8b1; stroke:none;" d="M463 558L464 559L463 558z"/>
<path style="fill:#917d81; stroke:none;" d="M557 559L557 562L558 562L557 559M464 560L465 561L464 560z"/>
<path style="fill:#c2c8b1; stroke:none;" d="M464 561L465 565L466 565L464 561z"/>
<path style="fill:#917d81; stroke:none;" d="M465 562L466 563L465 562z"/>
<path style="fill:#c2c8b1; stroke:none;" d="M557 562L556 569L557 569L557 562z"/>
<path style="fill:#917d81; stroke:none;" d="M466 565L467 566L466 565M556.333 565.667L556.667 566.333L556.333 565.667z"/>
<path style="fill:#c2c8b1; stroke:none;" d="M466 566L466 569L467 569L466 566z"/>
<path style="fill:#917d81; stroke:none;" d="M467.333 567.667L467.667 568.333L467.333 567.667z"/>
<path style="fill:#c2c8b1; stroke:none;" d="M225 569L226 570L225 569z"/>
<path style="fill:#917d81; stroke:none;" d="M226 569L227 570L226 569M406 569L406 570C410.223 574.507 409 581.186 409 587L409 628C409 634.3 410.936 642.734 403 644L403 646L410 646L410 589C410 582.737 412.27 572.457 406 569z"/>
<path style="fill:#c2c8b1; stroke:none;" d="M408 569L409 570L408 569M413 569C405.92 592.953 417.513 620.921 410 645C415.029 641.447 413 631.56 413 626C413 607.753 415.798 586.93 413 569z"/>
<path style="fill:#917d81; stroke:none;" d="M414.667 569.333L415.333 569.667L414.667 569.333M596 569L597 570L596 569z"/>
<path style="fill:#c2c8b1; stroke:none;" d="M597 569C602.545 582.085 599 601.895 599 616C599 621.705 596.788 630.796 604 632C596.7 619.626 600 601.326 600 587C600 581.597 601.893 572.457 597 569M605 569L606 570L605 569z"/>
<path style="fill:#917d81; stroke:none;" d="M606 569L607 570L606 569M787 569C791.831 580.401 789 596.742 789 609L789 695L789 724C789 727.389 789.954 732.713 787.972 735.682C784.697 740.59 769.896 738.166 765 737L765 738C769.806 739.42 785.75 741.511 788.972 736.682C793.727 729.557 790 709.51 790 701L790 607C790 597.578 793.965 575.821 787 569z"/>
<path style="fill:#c2c8b1; stroke:none;" d="M788 569L789 570L788 569M224 570L225 571L224 570M409 570L410 571L409 570z"/>
<path style="fill:#917d81; stroke:none;" d="M413.333 570.667L413.667 571.333L413.333 570.667z"/>
<path style="fill:#c2c8b1; stroke:none;" d="M604 570L605 571L604 570M789 570L790 571L789 570z"/>
<path style="fill:#917d81; stroke:none;" d="M224 571L225 572L224 571M598 571L599 572L598 571M604.333 571.667L604.667 572.333L604.333 571.667z"/>
<path style="fill:#c2c8b1; stroke:none;" d="M236 579L236 721L262 721L262 720L237 720L237 580L401 580C388.355 574.694 365.777 579 352 579L236 579z"/>
<path style="fill:#917d81; stroke:none;" d="M401 579L401 646L402 646L402 600L401 579M424 579L424 618L423.397 635.786L412 645C415.562 643.795 421.679 642.562 423.972 639.351C426.476 635.846 425 628.114 425 624C425 611.27 428.907 590.694 424 579z"/>
<path style="fill:#c2c8b1; stroke:none;" d="M425 579L425 580L458 580.001L470 579L425 579z"/>
<path style="fill:#917d81; stroke:none;" d="M552 579L551 581L552 579z"/>
<path style="fill:#c2c8b1; stroke:none;" d="M472 586L475 593C487.752 593.636 498.396 599.384 512 597.714C520.55 596.664 534.871 588.03 542.853 589.929C546.928 590.898 547.307 598.639 548 602C533.453 595.862 510.63 601.075 495 601.001C490.149 600.978 479.959 604.059 477 600L476 600L467 606L462 614L462 619L463 619C473.588 598.59 492.7 605.135 511 603.911C523.945 603.044 537.39 599.415 550 604.613C556.406 607.253 557.948 613.332 563 617L551 598L548 599C547.61 594.095 544.171 586.759 551 586L552 584C553.621 576.966 575.086 579.986 581 580C583.733 580.006 587.393 579.563 589.111 582.218C591.139 585.351 590 591.424 590 595L590 626L576 620L577 617L574 617C569.718 618.683 563.645 615.394 562 621L591 629L591 579C579.896 579 565.769 576.636 555 579.318C549.597 580.664 545.331 585.851 540 587.938C516.791 597.027 493.411 600.579 472 586z"/>
<path style="fill:#917d81; stroke:none;" d="M612 579L613 580L612 579z"/>
<path style="fill:#c2c8b1; stroke:none;" d="M664 674L660 653L657 654L656 650L654 651L655 648L646 642L638 637C634.672 637.322 626.461 635.576 626 632L625 632L613 632L613 580L778 580L778 720L753 720L753 721L779 721L779 618L779 591C779 588.09 779.912 583.052 777.972 580.603C774.758 576.545 759.813 579 755 579L688 579L634 579C629.103 579 617.582 576.876 613.603 580.028C609.746 583.083 612 596.474 612 601C612 608.134 608.556 627.628 613.028 633.262C616.041 637.057 625.609 636.546 630 638.104C637.773 640.862 644.819 646.837 651 652.131C654.346 654.997 658.356 657.739 659.968 662.004C661.482 666.009 660.563 671.109 664 674z"/>
<path style="fill:#917d81; stroke:none;" d="M778 579L779 580L778 579z"/>
<path style="fill:#f8f7f8; stroke:none;" d="M237 580L237 720L362 718L364.764 693L370 673L374 662L383.059 652.21L401 644L401 580L237 580M425 580L425 636L439 628C446.34 629.069 462.697 622.588 462 614L467 606C471.38 605.896 474.021 603.87 476 600L477 600L477 603C488.39 601.529 498.788 602.902 510 602.24C522.996 601.473 535.128 597.919 548 602L543.686 589.697L518 596.55L492 597.334L475 593L470 581L425 580M468 580L469 581L468 580z"/>
<path style="fill:#917d81; stroke:none;" d="M470.333 580.667L470.667 581.333L470.333 580.667z"/>
<path style="fill:#f8f7f8; stroke:none;" d="M552 584L550 584L550 585L551 586C543.563 585.245 547.406 594.4 548 599L551 598L562 618L574 617L577 617L576 620L590 626L590 594C590 590.672 591.175 584.385 588.972 581.603C587.109 579.25 582.617 580.001 580 580C574.04 579.997 553.288 576.848 552 584M613 580L613 632L625 632L626 632L627 635L638 637L646 642C647.953 645.994 650.462 648.263 655 648L654 651L656 650C656.105 652.884 657.221 653.402 660 653C660.145 661.488 661.888 678.55 670 683L673 690C672.645 695.946 677.907 705.874 683 709C683.766 720.183 696.37 718.997 705 719C729.4 719.009 753.583 720 778 720L778 580L613 580z"/>
<path style="fill:#c2c8b1; stroke:none;" d="M428 581L427 583L428 581M586 581L587 582L586 581M464 582L465 583L464 582M470 582L472 585L470 582M588.333 582.667L588.667 583.333L588.333 582.667M776 582L777 583L776 582M466.667 583.333L467.333 583.667L466.667 583.333z"/>
<path style="fill:#917d81; stroke:none;" d="M471 583L472 584L471 583z"/>
<path style="fill:#c2c8b1; stroke:none;" d="M556 583L557 584L556 583z"/>
<path style="fill:#917d81; stroke:none;" d="M547 584L548 585L547 584M472 585L473 586L472 585M545 585L546 586L545 585M473 586L474 587L473 586M543 586L544 587L543 586M474 587L475 588L474 587M540.667 587.333L541.333 587.667L540.667 587.333z"/>
<path style="fill:#c2c8b1; stroke:none;" d="M466 588L468 590L466 588z"/>
<path style="fill:#917d81; stroke:none;" d="M475 588L476 589L475 588M537.667 588.333L538.333 588.667L537.667 588.333M476 589L477 590L476 589M535 589L536 590L535 589z"/>
<path style="fill:#c2c8b1; stroke:none;" d="M550.333 589.667L550.667 590.333L550.333 589.667z"/>
<path style="fill:#917d81; stroke:none;" d="M477 590L478 591L477 590M532.667 590.333L533.333 590.667L532.667 590.333M479 591L480 592L479 591M529 591L530 592L529 591z"/>
<path style="fill:#c2c8b1; stroke:none;" d="M334 592L335 593L334 592z"/>
<path style="fill:#917d81; stroke:none;" d="M481 592L482 593L481 592M526 592L527 593L526 592z"/>
<path style="fill:#c2c8b1; stroke:none;" d="M247 593L248 594L247 593M311 593L312 594L311 593z"/>
<path style="fill:#917d81; stroke:none;" d="M484 593L485 594L484 593M522.667 593.333L523.333 593.667L522.667 593.333z"/>
<path style="fill:#c2c8b1; stroke:none;" d="M331 594L329 597L331 594M472 594L473 595L472 594z"/>
<path style="fill:#917d81; stroke:none;" d="M487.667 594.333L488.333 594.667L487.667 594.333M518.667 594.333L519.333 594.667L518.667 594.333M492 595L493 596L492 595M512 595L512 596L515 596L512 595z"/>
<path style="fill:#c2c8b1; stroke:none;" d="M303 596L304 597L303 596M334 596L333 598L334 596M239 603L240 603C245.435 598.882 256.372 601.003 263 601C280.278 600.993 297.65 600 315 600C321.012 600 330.051 598.251 335 602C337.626 596.973 321.096 599 318 599L260 599C255.051 599 240.228 597.269 239 603z"/>
<path style="fill:#fe6395; stroke:none;" d="M240 601L240 603L335 602L335 600L240 601z"/>
<path style="fill:#c2c8b1; stroke:none;" d="M472 600L473 601L472 600M554 600L555 601L554 600M465 601L467 603L465 601M249 602L249 603L333 603L307 602L249 602M469 602L470 603L469 602z"/>
<path style="fill:#fe6395; stroke:none;" d="M374 666L364.899 697L363.613 713L349.09 753L339 797L381 797C381 780.959 381.994 764.987 382 749C382.002 743.109 381.405 733.718 386.228 729.434C390.243 725.868 397.038 726.945 402 727.004C416.624 727.178 432.502 727.521 447 729.424C493.731 735.56 543.998 731.137 591 729.985C602.222 729.71 613.816 728.895 625 727.83C630.796 727.279 638.71 725.284 643.956 728.742C650.359 732.964 649.055 740.483 648.286 747C647.099 757.06 646.084 767.87 646 778C652.953 779.999 655.232 789.388 661.425 792.972C664.839 794.948 670.205 794 674 794C684.694 794 695.278 793 706 793C710.503 793 716.055 793.938 719.674 790.682C731.628 779.93 725.479 771.047 720.281 759C718.266 754.331 716.544 747.964 712.725 744.429C706.93 739.064 695.789 736.049 691.349 729.852C681.128 715.588 670.851 696.34 664.464 680C661.865 673.353 662.717 663.905 658.436 658.17C643.326 637.928 620.047 636.89 598 630.848C585.559 627.439 575.168 622.039 562 621C559.65 594.288 526.4 603.61 509 603.946C496.897 604.179 482.893 600.029 472 607.649C463.985 613.256 462.806 623.78 453.999 627.715C440.421 633.783 426.162 640.094 412 644.641C404.281 647.12 396.541 646.857 389 650.493C381.326 654.194 381.316 663.878 374 666z"/>
<path style="fill:#c2c8b1; stroke:none;" d="M559 602L560 603L559 602M265 604L266 605L265 604M272 604L273 605L272 604M290.667 604.333L291.333 604.667L290.667 604.333M302 604L302 605L305 606L302 604M320 604L321 605L320 604M466 604L467 605L466 604M469 604L470 605L469 604M292 606L293 607L292 606M332 606L331 609L332 606M243 607L244 608L243 607M250 607L251 608L250 607M311 607L312 608L311 607M321 607L322 608L321 607M329 607L330 608L329 607M335 607L336 608L335 607M286 608L287 609L286 608M308 608L309 609L308 608M327.333 608.667L327.667 609.333L327.333 608.667M465 608L466 609L465 608M565 608L566 609L565 608M248 609L249 610L248 609M256 609L257 610L256 609M264 609L265 610L264 609M277 609L278 610L277 609M292 609L293 610L292 609M331 610L332 611L331 610M239 611L239 615L240 615L240 612L291 612L274 611L239 611z"/>
<path style="fill:#fe6395; stroke:none;" d="M240 612L240 614L335 613L335 611L240 612z"/>
<path style="fill:#c2c8b1; stroke:none;" d="M335.333 611.667L335.667 612.333L335.333 611.667M274 613L274 614L333 614L314 613L274 613M334 614L335 615L334 614M284 615L285 616L284 615M295 615L297 617L295 615M329 615L329 616L332 616L329 615M567 615L568 616L567 615M271 616L272 617L271 616M458 616L457 620L460 620L458 616M587 616L588 617L587 616M329 618L328 620L328 621C330.158 620.022 330.501 619.812 329 618M455 618L456 619L455 618M253 619L254 620L253 619M287 619L288 620L287 619M271 620L272 621L271 620M303.333 620.667L303.667 621.333L303.333 620.667M311 620L312 621L311 620M335 620L336 621L335 620M439 628C434.556 632.351 426.165 633.225 425 640C435.174 636.053 458.433 631.043 462 620L439 628M264 621L265 622L264 621M329 622L330 623L329 622M333 622L334 623L333 622M448.333 622.667L448.667 623.333L448.333 622.667M244 623L244 624L297 624L280 623L244 623z"/>
<path style="fill:#fe6395; stroke:none;" d="M240 624L240 626L335 625L335 623L240 624z"/>
<path style="fill:#c2c8b1; stroke:none;" d="M335.333 623.667L335.667 624.333L335.333 623.667M451 623L452 624L451 623M239.333 624.667L239.667 625.333L239.333 624.667M440 624L441 625L440 624M442 624L443 625L442 624M281 625L281 626L333 626L316 625L281 625M240 626L241 627L240 626M334 626L335 627L334 626M440 627L441 628L440 627z"/>
<path style="fill:#917d81; stroke:none;" d="M591 627L599 631L591 627z"/>
<path style="fill:#c2c8b1; stroke:none;" d="M256 628L257 629L256 628M239 629L240 630L239 629M332 630L331 632L332 630M334 630L334 632L336 630L334 630M284 631L285 632L284 631z"/>
<path style="fill:#917d81; stroke:none;" d="M604 631L608 633L608 632L604 631z"/>
<path style="fill:#c2c8b1; stroke:none;" d="M425 632L426 633L425 632M428 632L429 633L428 632z"/>
<path style="fill:#917d81; stroke:none;" d="M609 632L612 634L612 633L609 632z"/>
<path style="fill:#c2c8b1; stroke:none;" d="M622 632L623 633L622 632M638 634L639 635L638 634M393 640L392 642L393 640M395 640L396 641L395 640M647.667 640.333L648.333 640.667L647.667 640.333M397.667 641.333L398.333 641.667L397.667 641.333M655 641L656 642L655 641M394 642L395 643L394 642M374 662L370 673L364 699L365 699L374 666L379.278 663.889L386 652.694L401 644C394.323 644.982 387.023 647.282 382.148 652.21C378.856 655.537 379.221 661.271 374 662M654 646L655 647L654 646M376 648L377 649L376 648M378 648L379 649L378 648M380 648L381 649L380 648M385 648L386 649L385 648M379.667 651.333L380.333 651.667L379.667 651.333M376 652L377 653L376 652M375 661L376 662L375 661M368 664L369 665L368 664M371 665L372 666L371 665M663 667L664 668L663 667M368 669L369 670L368 669M369 672L370 673L369 672M669 673L670 674L669 673M665 674L666 675L665 674M663 675L677.691 706L685.379 717.972L696 719L696 718C689.074 717.995 684.27 716.683 683 709C678.586 704.908 672.945 696.155 673 690L670 683L663 675M368 677L369 678L368 677M362 680L363 681L362 680M368 680L369 681L368 680M669 680L670 681L669 680M671 687L673 689L671 687M360 688L361 689L360 688M363.667 688.333L364.333 688.667L363.667 688.333M677 689L678 690L677 689M363 690L362 693L363 690M360.333 693.667L360.667 694.333L360.333 693.667M674 693L675 694L674 693M362 695L363 696L362 695M675 695L676 696L675 695M360 696L361 697L360 696M362.333 698.667L362.667 699.333L362.333 698.667M363 704L364 705L363 704M360.667 705.333L361.333 705.667L360.667 705.333M682 706L683 707L682 706z"/>
<path style="fill:#f8f7f8; stroke:none;" d="M206 708C206 723.348 202.653 743.293 207 758C232.124 752.019 261.605 763.713 286 755L286 738C271.276 738 256.709 739 242 739C237.759 739 228.87 740.663 225.603 737.397C220.865 732.658 224 714.46 224 708L206 708z"/>
<path style="fill:#c2c8b1; stroke:none;" d="M364 708L363 711L364 708M686 708L687 709L686 708M686.333 711.667L686.667 712.333L686.333 711.667M363.333 712.667L363.667 713.333L363.333 712.667M295 714L296 715L295 714M361 714L362 715L361 714M362.333 715.667L362.667 716.333L362.333 715.667M688 715L689 716L688 715M692 715L693 716L692 715M310 716L311 717L310 716M315 716L316 717L315 716M333 716L334 717L333 716M335 716L336 717L335 716M728 716L729 717L728 716M320 718L320 719L349 719L320 718M360 717L361 718L360 717M305 718L280 719L280 720L306 719L305 718M316 718L317 719L316 718z"/>
<path style="fill:#917d81; stroke:none;" d="M236 721L236 722L312 720.961L362 720C357.439 714.78 337.884 719 331 719C299.309 719 267.688 721 236 721z"/>
<path style="fill:#c2c8b1; stroke:none;" d="M711 719L711 720L738 720L711 719z"/>
<path style="fill:#917d81; stroke:none;" d="M685 719L686 722C693.47 717.845 703.773 721 712 721C734.373 721 756.621 722 779 722L756 720.83L685 719M360.333 721.667L360.667 722.333L360.333 721.667M687.333 722.667L687.667 723.333L687.333 722.667M359.333 724.667L359.667 725.333L359.333 724.667M688 724L689 725L688 724M689.333 725.667L689.667 726.333L689.333 725.667M358.333 727.667L358.667 728.333L358.333 727.667z"/>
<path style="fill:#684d54; stroke:none;" d="M381 797L661 794L647 779C644.265 769.48 647.55 754.873 648.714 745C649.355 739.568 649.975 732.279 644.891 728.742C639.797 725.198 630.74 727.037 625 727.714C613.849 729.03 602.215 729.469 591 729.961C543.28 732.05 493.582 733.698 446 729.17C431.656 727.805 416.401 727.07 402 727.001C397.187 726.978 390.318 725.803 386.228 728.894C381.261 732.647 382.002 742.443 382 748C381.994 764.318 381 780.627 381 797z"/>
<path style="fill:#917d81; stroke:none;" d="M690.333 727.667L690.667 728.333L690.333 727.667M386 728L387 729L386 728M428 728L429 729L428 728M357 729L357 732L358 732L357 729M691.333 729.667L691.667 730.333L691.333 729.667M472 730L473 731L472 730M574 730L575 731L574 730M692 731L692 733L702 737L703 736C699.889 731.917 697.021 731.059 692 731M356 732L356 735L357 735L356 732M337 735L337 736L356 736L337 735M224 736L225 737L224 736z"/>
<path style="fill:#c2c8b1; stroke:none;" d="M332 736C332 741.531 329.876 751.678 335 755L335 754C331.506 749.388 332.717 741.389 334 736L332 736z"/>
<path style="fill:#f8f7f8; stroke:none;" d="M348 756L354 736C349.25 736 338.454 733.978 334.603 737.028C331.337 739.615 331.862 753.036 335.573 755.142C338.852 757.004 344.353 756 348 756z"/>
<path style="fill:#c2c8b1; stroke:none;" d="M354 736L351 747L352 747L356 736L354 736M224 737L225 738L224 737z"/>
<path style="fill:#917d81; stroke:none;" d="M258 737L259 738L258 737M265 737L265 738L285 738L265 737z"/>
<path style="fill:#c2c8b1; stroke:none;" d="M285 737L286 738L285 737z"/>
<path style="fill:#917d81; stroke:none;" d="M286 737L286 756L287 756L286 737M355 737L356 738L355 737M734 737L734 738L750 738L734 737z"/>
<path style="fill:#c2c8b1; stroke:none;" d="M789 737L790 738L789 737M225 738L226 739L225 738z"/>
<path style="fill:#917d81; stroke:none;" d="M226 738L226 739L248 739L226 738z"/>
<path style="fill:#c2c8b1; stroke:none;" d="M248 738L248 739L262 739L248 738M752 738L752 739L766 739L752 738M788 738L789 739L788 738z"/>
<path style="fill:#917d81; stroke:none;" d="M705 740L706 741L705 740M706 741L707 742L706 741M353 742L354 743L353 742M710 742L711 743L710 742M352 744L353 745L352 744z"/>
<path style="fill:#c2c8b1; stroke:none;" d="M715 746L715 749L716 749L715 746z"/>
<path style="fill:#917d81; stroke:none;" d="M716 746L716 747L725 747L716 746z"/>
<path style="fill:#c2c8b1; stroke:none;" d="M350 747L349 751L350 751L350 747z"/>
<path style="fill:#f8f7f8; stroke:none;" d="M716 747L728 774C733.598 769.617 741.063 756.997 733.606 750.995C729.052 747.329 721.534 747.699 716 747z"/>
<path style="fill:#c2c8b1; stroke:none;" d="M719 747L719 748C725.785 748.019 732.32 748.636 736 755L756 754L756 753L741.089 752.401L734 750L719 747z"/>
<path style="fill:#917d81; stroke:none;" d="M728 747L729 748L728 747M731 748L732 749L731 748M350 749L351 750L350 749M733 749L734 750L733 749z"/>
<path style="fill:#c2c8b1; stroke:none;" d="M716 750L717 751L716 750z"/>
<path style="fill:#917d81; stroke:none;" d="M349 751L350 752L349 751z"/>
<path style="fill:#c2c8b1; stroke:none;" d="M348.333 752.667L348.667 753.333L348.333 752.667M717 752L718 753L717 752M788 752L788 753L808 753L788 752z"/>
<path style="fill:#917d81; stroke:none;" d="M756 753L756 754L788 754L756 753z"/>
<path style="fill:#684d54; stroke:none;" d="M738 754C737.873 768.249 725.532 781.563 718 793L860 792C860 775.812 846.331 772.913 833 766.247C824.908 762.201 815.839 755.302 807 753.39C799.195 751.703 790.817 753.618 783 753.961C768.059 754.615 752.956 754 738 754z"/>
<path style="fill:#917d81; stroke:none;" d="M808 753L809 754L808 753z"/>
<path style="fill:#c2c8b1; stroke:none;" d="M809 753L809 754L816 757L816 756L809 753z"/>
<path style="fill:#917d81; stroke:none;" d="M332 754L333 755L332 754M348 754L349 755L348 754z"/>
<path style="fill:#c2c8b1; stroke:none;" d="M718 754L719 755L718 754z"/>
<path style="fill:#917d81; stroke:none;" d="M737 754L737 762L738 762L737 754M810 754L811 755L810 754z"/>
<path style="fill:#c2c8b1; stroke:none;" d="M208 757L208 758L259 758L286 756L264 757L208 757z"/>
<path style="fill:#917d81; stroke:none;" d="M812 755L813 756L812 755z"/>
<path style="fill:#c2c8b1; stroke:none;" d="M335 756L335 757L348 757L335 756M719.333 756.667L719.667 757.333L719.333 756.667z"/>
<path style="fill:#917d81; stroke:none;" d="M814 756L815 757L814 756M283 757L284 758L283 757M816 757L816 758L827 763L827 762L816 757z"/>
<path style="fill:#c2c8b1; stroke:none;" d="M817 757L818 758L817 757z"/>
<path style="fill:#917d81; stroke:none;" d="M196 758L196 759L248 759L231 758L196 758z"/>
<path style="fill:#c2c8b1; stroke:none;" d="M720.333 758.667L720.667 759.333L720.333 758.667M819 758L820 759L819 758z"/>
<path style="fill:#917d81; stroke:none;" d="M195 759L196 760L195 759M347 759L348 760L347 759z"/>
<path style="fill:#c2c8b1; stroke:none;" d="M736 759L735 765L736 765L736 759M821 759L822 760L821 759z"/>
<path style="fill:#917d81; stroke:none;" d="M193 760L194 761L193 760z"/>
<path style="fill:#c2c8b1; stroke:none;" d="M721.333 760.667L721.667 761.333L721.333 760.667M823 760L824 761L823 760z"/>
<path style="fill:#917d81; stroke:none;" d="M191.667 761.333L192.333 761.667L191.667 761.333z"/>
<path style="fill:#c2c8b1; stroke:none;" d="M825 761L826 762L825 761z"/>
<path style="fill:#917d81; stroke:none;" d="M190 762L191 763L190 762M188 763L189 764L188 763M346.333 763.667L346.667 764.333L346.333 763.667z"/>
<path style="fill:#c2c8b1; stroke:none;" d="M722.333 763.667L722.667 764.333L722.333 763.667z"/>
<path style="fill:#917d81; stroke:none;" d="M736 763L737 764L736 763M827.667 763.333L828.333 763.667L827.667 763.333M186 764L187 765L186 764M829 764L830 765L829 764z"/>
<path style="fill:#c2c8b1; stroke:none;" d="M830 764L831 765L830 764z"/>
<path style="fill:#917d81; stroke:none;" d="M185 765L186 766L185 765z"/>
<path style="fill:#c2c8b1; stroke:none;" d="M723.333 765.667L723.667 766.333L723.333 765.667z"/>
<path style="fill:#917d81; stroke:none;" d="M735 765L736 766L735 765M831 765L832 766L831 765z"/>
<path style="fill:#c2c8b1; stroke:none;" d="M832 765L833 766L832 765z"/>
<path style="fill:#917d81; stroke:none;" d="M183 766L184 767L183 766z"/>
<path style="fill:#c2c8b1; stroke:none;" d="M734 766L732 770L733 770L734 766z"/>
<path style="fill:#917d81; stroke:none;" d="M833 766L834 767L833 766z"/>
<path style="fill:#c2c8b1; stroke:none;" d="M834 766L835 767L834 766z"/>
<path style="fill:#917d81; stroke:none;" d="M181 767L182 768L181 767z"/>
<path style="fill:#c2c8b1; stroke:none;" d="M724.333 767.667L724.667 768.333L724.333 767.667z"/>
<path style="fill:#917d81; stroke:none;" d="M734 767L735 768L734 767M835 767L836 768L835 767z"/>
<path style="fill:#c2c8b1; stroke:none;" d="M836 767L836 768L843 771L843 770L836 767z"/>
<path style="fill:#917d81; stroke:none;" d="M180 768L181 769L180 768M345 768L346 769L345 768M837 768L838 769L837 768M178 769L179 770L178 769z"/>
<path style="fill:#c2c8b1; stroke:none;" d="M725.333 769.667L725.667 770.333L725.333 769.667z"/>
<path style="fill:#917d81; stroke:none;" d="M733 769L734 770L733 769M839 769L840 770L839 769M176 770L177 771L176 770M732 770L733 771L732 770M841 770L842 771L841 770M175 771L176 772L175 771z"/>
<path style="fill:#c2c8b1; stroke:none;" d="M726.333 771.667L726.667 772.333L726.333 771.667M731 771L728 775L731 771z"/>
<path style="fill:#917d81; stroke:none;" d="M843 771L843 772L856 778L856 777L843 771z"/>
<path style="fill:#c2c8b1; stroke:none;" d="M844 771L845 772L844 771z"/>
<path style="fill:#917d81; stroke:none;" d="M173 772L174 773L173 772M731 772L732 773L731 772z"/>
<path style="fill:#c2c8b1; stroke:none;" d="M846 772L847 773L846 772z"/>
<path style="fill:#917d81; stroke:none;" d="M171.667 773.333L172.333 773.667L171.667 773.333M344 773L345 774L344 773z"/>
<path style="fill:#c2c8b1; stroke:none;" d="M727 773L728 774L727 773z"/>
<path style="fill:#917d81; stroke:none;" d="M730 773L731 774L730 773z"/>
<path style="fill:#c2c8b1; stroke:none;" d="M848 773L849 774L848 773z"/>
<path style="fill:#917d81; stroke:none;" d="M169.667 774.333L170.333 774.667L169.667 774.333M729 774L730 775L729 774z"/>
<path style="fill:#c2c8b1; stroke:none;" d="M850 774L851 775L850 774z"/>
<path style="fill:#917d81; stroke:none;" d="M168 775L169 776L168 775z"/>
<path style="fill:#c2c8b1; stroke:none;" d="M852 775L853 776L852 775z"/>
<path style="fill:#917d81; stroke:none;" d="M166 776L167 777L166 776M728 776L729 777L728 776z"/>
<path style="fill:#c2c8b1; stroke:none;" d="M854 776L855 777L854 776z"/>
<path style="fill:#917d81; stroke:none;" d="M164 777L165 778L164 777M343.333 777.667L343.667 778.333L343.333 777.667M163 778L164 779L163 778M646 778L647 779L646 778M727 778L728 779L727 778z"/>
<path style="fill:#c2c8b1; stroke:none;" d="M857 778L858 779L857 778z"/>
<path style="fill:#917d81; stroke:none;" d="M161 779L162 780L161 779M649 779L650 780L649 779M858 779L859 780L858 779z"/>
<path style="fill:#c2c8b1; stroke:none;" d="M859 779L860 780L859 779z"/>
<path style="fill:#917d81; stroke:none;" d="M160 780L161 781L160 780M650 780L651 781L650 780M726 780L727 781L726 780M158 781L159 782L158 781M342.333 781.667L342.667 782.333L342.333 781.667M156 782L157 783L156 782M155 783L156 784L155 783M153 784L154 785L153 784M654 785L655 786L654 785M723 785L724 786L723 785M341 786L342 787L341 786M721 788L722 789L721 788M340 790L341 791L340 790M660 792L661 793L660 792M773 792L773 793L821 793C808.586 787.791 786.526 792 773 792z"/>
<path style="fill:#c2c8b1; stroke:none;" d="M821 792L821 793L851 793L821 792z"/>
<path style="fill:#917d81; stroke:none;" d="M686 793L686 794L707 794L686 793z"/>
<path style="fill:#c2c8b1; stroke:none;" d="M707 793L707 794L716 794L707 793z"/>
<path style="fill:#917d81; stroke:none;" d="M339 794L340 795L339 794M604 794L604 795L631 795L604 794z"/>
<path style="fill:#c2c8b1; stroke:none;" d="M631 794L631 795L644 795L631 794z"/>
<path style="fill:#917d81; stroke:none;" d="M494 795L494 796L533 796C522.726 791.689 505.172 795 494 795z"/>
<path style="fill:#c2c8b1; stroke:none;" d="M533 795L533 796L543 796L533 795z"/>
<path style="fill:#917d81; stroke:none;" d="M334 796L335 797L334 796M336 796L336 797L339 797L336 796M389.667 796.333L390.333 796.667L389.667 796.333M392 796L392 797L439 797C426.823 791.891 405.265 796 392 796z"/>
<path style="fill:#c2c8b1; stroke:none;" d="M439 796L439 797L458 797L439 796z"/>
<path style="fill:#917d81; stroke:none;" d="M225 797L226 798L225 797M230 797L230 798L292 798L272 797L230 797z"/>
<path style="fill:#c2c8b1; stroke:none;" d="M292 797L293 798L292 797z"/>
<path style="fill:#917d81; stroke:none;" d="M293.667 797.333L294.333 797.667L293.667 797.333z"/>
<path style="fill:#c2c8b1; stroke:none;" d="M295 797L295 798L327 798L295 797z"/>
<path style="fill:#917d81; stroke:none;" d="M187 798L187 799L218 799L187 798z"/>
<path style="fill:#c2c8b1; stroke:none;" d="M218 798L218 799L237 799L218 798z"/>
</svg>
