<?xml version="1.0" standalone="yes"?>
<svg xmlns="http://www.w3.org/2000/svg" width="1080" height="1080">
<path style="fill:#fefefe; stroke:none;" d="M0 0L0 1080L1080 1080L1080 0L0 0z"/>
<path style="fill:#f3f8b7; stroke:none;" d="M419 226L419 227L424 227L419 226z"/>
<path style="fill:#81767d; stroke:none;" d="M424 226L424 227L431 227L424 226z"/>
<path style="fill:#523a4f; stroke:none;" d="M347 400C331.066 371.381 321.637 342.865 330.745 310C333.625 299.608 338.79 290.77 343 281L344 281C336.969 298.137 330.644 315.114 331.015 334C331.965 382.236 370.473 435.754 422 438L422 437C396.796 433.278 375.367 410.151 369.654 386C368.288 380.223 369.261 373.744 367.683 368.209C366.857 365.312 363.915 363.674 362.653 360.957C359.057 353.219 363.228 344.742 372 347L378 334L379 353C396.828 353 402.633 344.011 414 331L412 353L458 353L482 352L478 334L479 334C483.379 344.674 484.261 352.999 497 353L497 338L502 347C519.872 342.399 507.996 362.121 506.394 368.12C504.696 374.478 505.647 381.436 503.848 388C496.975 413.081 473.633 435.824 447 438L447 439L470 435C470.001 442.746 470.683 449.984 474.274 457C477.132 462.583 481.679 467.406 487 470.728C492.112 473.921 497.983 475.705 504 475.961C519.85 476.635 534.627 467.179 539.899 452C545.953 434.569 536.799 409.573 517 406L517 405C537.293 405.17 552.835 422.051 553 442L554 442C553.998 421.543 542.065 402.962 520 402C533.022 380.898 543.998 361.61 544 336C544.001 315.021 540.131 295.139 528.935 277C490.323 214.442 395.111 209.341 348.464 266C325.63 293.735 318.72 330.584 328.152 365C331.381 376.781 337.333 392.125 347 400z"/>
<path style="fill:#81767d; stroke:none;" d="M445 226L445 227L451 227L445 226z"/>
<path style="fill:#f3f8b7; stroke:none;" d="M451 226L451 227L457 227L451 226M414 227L414 228L418 228L414 227z"/>
<path style="fill:#81767d; stroke:none;" d="M418 227L418 228L421 228L418 227M454 227L454 228L458 228L454 227z"/>
<path style="fill:#f3f8b7; stroke:none;" d="M458 227L458 228L462 228L458 227M410 228L410 229L413 229L410 228z"/>
<path style="fill:#81767d; stroke:none;" d="M413 228L413 229L416 229L413 228M460 228L460 229L463 229L460 228z"/>
<path style="fill:#f3f8b7; stroke:none;" d="M463 228L463 229L466 229L463 228M406 229L406 230L409 230L406 229z"/>
<path style="fill:#81767d; stroke:none;" d="M409.667 229.333L410.333 229.667L409.667 229.333M464 229L464 230L467 230L464 229z"/>
<path style="fill:#f3f8b7; stroke:none;" d="M467.667 229.333L468.333 229.667L467.667 229.333M402 230L402 231L405 231L402 230z"/>
<path style="fill:#81767d; stroke:none;" d="M405.667 230.333L406.333 230.667L405.667 230.333M468.667 230.333L469.333 230.667L468.667 230.333z"/>
<path style="fill:#f3f8b7; stroke:none;" d="M470.667 230.333L471.333 230.667L470.667 230.333M399.667 231.333L400.333 231.667L399.667 231.333z"/>
<path style="fill:#81767d; stroke:none;" d="M401.667 231.333L402.333 231.667L401.667 231.333M471.667 231.333L472.333 231.667L471.667 231.333z"/>
<path style="fill:#f3f8b7; stroke:none;" d="M473.667 231.333L474.333 231.667L473.667 231.333M393 233L393 234L398 233L393 233z"/>
<path style="fill:#81767d; stroke:none;" d="M398.667 232.333L399.333 232.667L398.667 232.333M474.667 232.333L475.333 232.667L474.667 232.333z"/>
<path style="fill:#f3f8b7; stroke:none;" d="M476 232L476 233L480 234L480 233L476 232z"/>
<path style="fill:#81767d; stroke:none;" d="M395.667 233.333L396.333 233.667L395.667 233.333M477 233L478 234L477 233z"/>
<path style="fill:#f3f8b7; stroke:none;" d="M388 235L388 236L392 235L388 235z"/>
<path style="fill:#81767d; stroke:none;" d="M392.667 234.333L393.333 234.667L392.667 234.333M479 234L479 235L483 236L483 235L479 234z"/>
<path style="fill:#f3f8b7; stroke:none;" d="M481 234L482 235L481 234z"/>
<path style="fill:#81767d; stroke:none;" d="M390 235L391 236L390 235z"/>
<path style="fill:#f3f8b7; stroke:none;" d="M483 235L484 236L483 235M378 240L378 241L387 237L378 240z"/>
<path style="fill:#81767d; stroke:none;" d="M387.667 236.333L388.333 236.667L387.667 236.333M484 236L485 237L484 236z"/>
<path style="fill:#f3f8b7; stroke:none;" d="M485 236L485 237L490 239L490 238L485 236z"/>
<path style="fill:#81767d; stroke:none;" d="M385 237L386 238L385 237M486 237L487 238L486 237M383 238L384 239L383 238M488 238L489 239L488 238M381 239L382 240L381 239M489 239L489 240L494 242L494 241L489 239z"/>
<path style="fill:#f3f8b7; stroke:none;" d="M491 239L492 240L491 239z"/>
<path style="fill:#81767d; stroke:none;" d="M379 240L380 241L379 240z"/>
<path style="fill:#f3f8b7; stroke:none;" d="M493 240L494 241L493 240M376 241L377 242L376 241z"/>
<path style="fill:#81767d; stroke:none;" d="M377 241L378 242L377 241z"/>
<path style="fill:#f3f8b7; stroke:none;" d="M494 241L495 242L494 241M374 242L373 244L374 242z"/>
<path style="fill:#81767d; stroke:none;" d="M375.667 242.333L376.333 242.667L375.667 242.333M495 242L497 244L495 242z"/>
<path style="fill:#f3f8b7; stroke:none;" d="M496 242L497 243L496 242z"/>
<path style="fill:#81767d; stroke:none;" d="M374 243L375 244L374 243z"/>
<path style="fill:#f3f8b7; stroke:none;" d="M497 243L498 244L497 243M371 244L370 246L371 244z"/>
<path style="fill:#81767d; stroke:none;" d="M372 244L373 245L372 244M498 244L505 250L498 244z"/>
<path style="fill:#f3f8b7; stroke:none;" d="M499 244L500 245L499 244z"/>
<path style="fill:#81767d; stroke:none;" d="M371 245L372 246L371 245z"/>
<path style="fill:#f3f8b7; stroke:none;" d="M500 245L501 246L500 245M368 246L367 248L368 246z"/>
<path style="fill:#81767d; stroke:none;" d="M369 246L370 247L369 246z"/>
<path style="fill:#f3f8b7; stroke:none;" d="M502 246L503 247L502 246z"/>
<path style="fill:#81767d; stroke:none;" d="M368 247L369 248L368 247z"/>
<path style="fill:#f3f8b7; stroke:none;" d="M503 247L504 248L503 247M365 248L362 252L365 248z"/>
<path style="fill:#81767d; stroke:none;" d="M366.667 248.333L367.333 248.667L366.667 248.333z"/>
<path style="fill:#f3f8b7; stroke:none;" d="M504 248L505 249L504 248z"/>
<path style="fill:#81767d; stroke:none;" d="M365 249L366 250L365 249z"/>
<path style="fill:#f3f8b7; stroke:none;" d="M505 249L506 250L505 249z"/>
<path style="fill:#81767d; stroke:none;" d="M364 250L365 251L364 250M506 250L520 264L506 250z"/>
<path style="fill:#f3f8b7; stroke:none;" d="M507 250L508 251L507 250z"/>
<path style="fill:#81767d; stroke:none;" d="M363 251L364 252L363 251z"/>
<path style="fill:#f3f8b7; stroke:none;" d="M508 251L509 252L508 251z"/>
<path style="fill:#81767d; stroke:none;" d="M361 252L362 253L361 252z"/>
<path style="fill:#f3f8b7; stroke:none;" d="M509 252L510 253L509 252M359 253L349 264L359 253z"/>
<path style="fill:#81767d; stroke:none;" d="M360 253L361 254L360 253z"/>
<path style="fill:#f3f8b7; stroke:none;" d="M510 253L511 254L510 253z"/>
<path style="fill:#81767d; stroke:none;" d="M359 254L360 255L359 254z"/>
<path style="fill:#f3f8b7; stroke:none;" d="M511 254L512 255L511 254z"/>
<path style="fill:#81767d; stroke:none;" d="M358 255L359 256L358 255z"/>
<path style="fill:#f3f8b7; stroke:none;" d="M512 255L513 256L512 255z"/>
<path style="fill:#81767d; stroke:none;" d="M357 256L358 257L357 256z"/>
<path style="fill:#f3f8b7; stroke:none;" d="M513 256L514 257L513 256z"/>
<path style="fill:#81767d; stroke:none;" d="M356 257L357 258L356 257z"/>
<path style="fill:#f3f8b7; stroke:none;" d="M514 257L515 258L514 257z"/>
<path style="fill:#81767d; stroke:none;" d="M355 258L356 259L355 258z"/>
<path style="fill:#f3f8b7; stroke:none;" d="M515 258L516 259L515 258z"/>
<path style="fill:#81767d; stroke:none;" d="M354 259L355 260L354 259z"/>
<path style="fill:#f3f8b7; stroke:none;" d="M516 259L517 260L516 259z"/>
<path style="fill:#81767d; stroke:none;" d="M353 260L354 261L353 260z"/>
<path style="fill:#f3f8b7; stroke:none;" d="M517 260L518 261L517 260z"/>
<path style="fill:#81767d; stroke:none;" d="M352 261L353 262L352 261z"/>
<path style="fill:#f3f8b7; stroke:none;" d="M518 261L519 262L518 261z"/>
<path style="fill:#81767d; stroke:none;" d="M351 262L352 263L351 262z"/>
<path style="fill:#f3f8b7; stroke:none;" d="M519 262L520 263L519 262z"/>
<path style="fill:#81767d; stroke:none;" d="M350 263L351 264L350 263M349 264L350 265L349 264M520 264L524 269L520 264M348 265L349 266L348 265z"/>
<path style="fill:#f3f8b7; stroke:none;" d="M521 265L522 266L521 265M347 266L345 269L347 266M522 266L523 267L522 266z"/>
<path style="fill:#81767d; stroke:none;" d="M347 267L348 268L347 267z"/>
<path style="fill:#f3f8b7; stroke:none;" d="M523 267L524 268L523 267z"/>
<path style="fill:#81767d; stroke:none;" d="M346 268L347 269L346 268M345 269L346 270L345 269M524 269L529 278L530 278L524 269M344 270L342 274L344 270z"/>
<path style="fill:#f3f8b7; stroke:none;" d="M525 270L526 271L525 270M343 271L344 272L343 271M526 271L527 272L526 271M342 272L343 273L342 272M527 273L528 274L527 273M341 274L340 276L341 274M528 274L529 275L528 274z"/>
<path style="fill:#81767d; stroke:none;" d="M341 275L342 276L341 275M340 276L341 277L340 276z"/>
<path style="fill:#f3f8b7; stroke:none;" d="M529 276L530 277L529 276M339 277L338 279L339 277z"/>
<path style="fill:#81767d; stroke:none;" d="M339 278L340 279L339 278M345 278L344 281L345 281L345 278z"/>
<path style="fill:#f3f8b7; stroke:none;" d="M530 278L532 280L530 278z"/>
<path style="fill:#81767d; stroke:none;" d="M338 279L337 282L338 279M530 279L531 280L530 279z"/>
<path style="fill:#f3f8b7; stroke:none;" d="M337 280L338 281L337 280z"/>
<path style="fill:#81767d; stroke:none;" d="M531 280L540 304L541 304C539.814 295.97 536.201 286.277 531 280M343 281C339.91 286.049 336.168 290.868 337 297L335 296L336 300L335 300L335 298L334 298L335 303L336 303L337 293C340.83 292.494 343.913 284.572 343 281z"/>
<path style="fill:#f3f8b7; stroke:none;" d="M532 281L533 282L532 281M336 282L337 283L336 282z"/>
<path style="fill:#81767d; stroke:none;" d="M336 283L337 284L336 283z"/>
<path style="fill:#f3f8b7; stroke:none;" d="M533 283L534 284L533 283M335 284L336 285L335 284z"/>
<path style="fill:#81767d; stroke:none;" d="M335 285L336 286L335 285z"/>
<path style="fill:#f3f8b7; stroke:none;" d="M534 285L535 286L534 285z"/>
<path style="fill:#81767d; stroke:none;" d="M334.333 286.667L334.667 287.333L334.333 286.667z"/>
<path style="fill:#f3f8b7; stroke:none;" d="M535 287L536 288L535 287M333 288L334 289L333 288z"/>
<path style="fill:#81767d; stroke:none;" d="M333 289L334 290L333 289z"/>
<path style="fill:#f3f8b7; stroke:none;" d="M536 289L537 290L536 289M332 290L333 291L332 290z"/>
<path style="fill:#81767d; stroke:none;" d="M332 291L329 300L330 300L332 291z"/>
<path style="fill:#f3f8b7; stroke:none;" d="M338 291L339 292L338 291M537.333 291.667L537.667 292.333L537.333 291.667M331 292L332 293L331 292M337.333 293.667L337.667 294.333L337.333 293.667M330 294L331 295L330 294M538 294L539 295L538 294M336.333 295.667L336.667 296.333L336.333 295.667M329 297L330 298L329 297M335 297L335 300L336 300L335 297M539 297L540 298L539 297M328 300L329 301L328 300M334 300L333 305L334 305L334 300M540 300L541 301L540 300z"/>
<path style="fill:#81767d; stroke:none;" d="M328.333 301.667L328.667 302.333L328.333 301.667M333.333 301.667L333.667 302.333L333.333 301.667z"/>
<path style="fill:#f3f8b7; stroke:none;" d="M327 303L328 304L327 303M541.333 303.667L541.667 304.333L541.333 303.667M782 335L783 335L783 304L814 304L790 303.001L782.603 305.318L782 335z"/>
<path style="fill:#81767d; stroke:none;" d="M327 304L327 307L328 307L327 304M332.333 304.667L332.667 305.333L332.333 304.667M334 304L334 307L335 307L334 304z"/>
<path style="fill:#523a4f; stroke:none;" d="M783 304L783 334L813 334L813 304L783 304z"/>
<path style="fill:#81767d; stroke:none;" d="M813 304L813 334L783 334L783 335L814 335L813 304z"/>
<path style="fill:#fefefe; stroke:none;" d="M333 305L334 306L333 305z"/>
<path style="fill:#81767d; stroke:none;" d="M541 305L541 308L542 308L541 305M784 333L785 333L785 306L812 306C807.704 304.197 786.948 302.552 784.603 307.318C781.543 313.538 784 326.097 784 333z"/>
<path style="fill:#f3f8b7; stroke:none;" d="M326.333 306.667L326.667 307.333L326.333 306.667M332 306L332 308L334 308L334 306L332 306z"/>
<path style="fill:#fefefe; stroke:none;" d="M785 306L785 332L811 332L811 306L785 306z"/>
<path style="fill:#f3f8b7; stroke:none;" d="M811 306L811 332L785 332L785 333C791.658 333 803.678 335.351 809.682 332.397C814.401 330.075 812.772 310.223 811 306z"/>
<path style="fill:#81767d; stroke:none;" d="M331.333 307.667L331.667 308.333L331.333 307.667z"/>
<path style="fill:#f3f8b7; stroke:none;" d="M542.333 307.667L542.667 308.333L542.333 307.667z"/>
<path style="fill:#81767d; stroke:none;" d="M326 308L326 311L327 311L326 308z"/>
<path style="fill:#fefefe; stroke:none;" d="M332 308L332 311L333 311L332 308z"/>
<path style="fill:#81767d; stroke:none;" d="M333 308L333 311L334 311L333 308z"/>
<path style="fill:#f3f8b7; stroke:none;" d="M331 309L333 312L331 309z"/>
<path style="fill:#81767d; stroke:none;" d="M542 309L542 313L543 313L542 309z"/>
<path style="fill:#f3f8b7; stroke:none;" d="M325.333 310.667L325.667 311.333L325.333 310.667z"/>
<path style="fill:#81767d; stroke:none;" d="M330 310L330 313L331 313L330 310z"/>
<path style="fill:#f3f8b7; stroke:none;" d="M543 311L543 314L544 314L543 311z"/>
<path style="fill:#81767d; stroke:none;" d="M325 312L325 316L326 316L325 312z"/>
<path style="fill:#fefefe; stroke:none;" d="M331 312L331 316L332 316L331 312z"/>
<path style="fill:#81767d; stroke:none;" d="M332 312L332 317L333 317L332 312z"/>
<path style="fill:#f3f8b7; stroke:none;" d="M330 313L330 316L331 316L330 313z"/>
<path style="fill:#81767d; stroke:none;" d="M543 314L543 319L544 319L543 314z"/>
<path style="fill:#fa68e3; stroke:none;" d="M831 314L831 327L977 327L977 314L831 314z"/>
<path style="fill:#f3f8b7; stroke:none;" d="M324.333 315.667L324.667 316.333L324.333 315.667z"/>
<path style="fill:#81767d; stroke:none;" d="M329.333 315.667L329.667 316.333L329.333 315.667z"/>
<path style="fill:#f3f8b7; stroke:none;" d="M331 316L331 319L332 319L331 316z"/>
<path style="fill:#81767d; stroke:none;" d="M324 317L324 323L325 323L324 317z"/>
<path style="fill:#f3f8b7; stroke:none;" d="M329 317L329 322L330 322L329 317M544 317L544 320L545 320L544 317z"/>
<path style="fill:#81767d; stroke:none;" d="M331 319L331 327L332 327L331 319M328 320L328 324L329 324L328 320M544 320L544 345L545 345L544 320z"/>
<path style="fill:#f3f8b7; stroke:none;" d="M323 322L323 325L324 325L323 322M328 324L328 333L329 333L328 324z"/>
<path style="fill:#81767d; stroke:none;" d="M323 325L323 344L324 344L323 325z"/>
<path style="fill:#f3f8b7; stroke:none;" d="M330 325L330 340L331 340L330 325M545 326L545 340L546 340L545 326z"/>
<path style="fill:#81767d; stroke:none;" d="M327 327L327 348L328 348L327 327M413 331L411 334L415 334L413 331M811 332L812 333L811 332z"/>
<path style="fill:#f3f8b7; stroke:none;" d="M378 353L378 335L377 335L372 348C359.996 343.051 358.601 362.059 368 365C368 377.479 369.716 389.699 375.37 401C395.788 441.809 452.053 451.284 484.83 419.711C499.672 405.414 505.944 385.159 506 365C515.247 362.088 513.783 343.132 502 348L499 339L498 339L498 353C487.033 353 483.921 349.679 481 339L480 339L482 353L411 353L414 333L393.985 351.972L378 353z"/>
<path style="fill:#81767d; stroke:none;" d="M377 334L378 335L377 334M478 334L479 342L480 342L478 334M378 335L378 353L379 353L378 335M413 335L413 341L414 341L413 335M376 336L377 337L376 336M408 337L409 338L408 337M375 338L376 339L375 338M407 338L408 339L407 338M497 338L497 353L498 353L499 338L497 338M331 339L331 347L332 347L331 339M406 339L407 340L406 339M481 339L481 342L482 342L481 339M374 340L375 341L374 340M405 340L406 341L405 340M499.333 340.667L499.667 341.333L499.333 340.667M404 341L405 342L404 341M373 342L374 343L373 342M403 342L404 343L403 342M412 342L412 348L413 348L412 342M482.333 342.667L482.667 343.333L482.333 342.667M500.333 342.667L500.667 343.333L500.333 342.667z"/>
<path style="fill:#f3f8b7; stroke:none;" d="M328 343L328 352L329 352L328 343z"/>
<path style="fill:#81767d; stroke:none;" d="M402 343L403 344L402 343M480 343L480 347L481 347L480 343z"/>
<path style="fill:#f3f8b7; stroke:none;" d="M323 344L323 347L324 347L323 344z"/>
<path style="fill:#81767d; stroke:none;" d="M372.333 344.667L372.667 345.333L372.333 344.667M401 344L402 345L401 344M483 344L483 347L484 347L483 344M501.333 344.667L501.667 345.333L501.333 344.667M366 345L366 346L369 346L366 345M505 345L505 346L508 346L505 345z"/>
<path style="fill:#f3f8b7; stroke:none;" d="M544 345L544 349L545 349L544 345z"/>
<path style="fill:#81767d; stroke:none;" d="M324 346L324 352L325 352L324 346M364 346L365 347L364 346M369 346L370 347L369 346M504 346L505 347L504 346M509 346L510 347L509 346M543 346L543 352L544 352L543 346z"/>
<path style="fill:#f3f8b7; stroke:none;" d="M331.333 347.667L331.667 348.333L331.333 347.667z"/>
<path style="fill:#81767d; stroke:none;" d="M363 347L364 348L363 347M370.667 347.333L371.333 347.667L370.667 347.333M481 347L481 351L482 351L481 347M484.333 347.667L484.667 348.333L484.333 347.667M502.667 347.333L503.333 347.667L502.667 347.333M510.333 347.667L510.667 348.333L510.333 347.667z"/>
<path style="fill:#f3f8b7; stroke:none;" d="M782 378L783 378L783 348L814 348L790 347.001L782.603 349.318L782 378z"/>
<path style="fill:#81767d; stroke:none;" d="M332 348L332 353L333 353L332 348M398 348L399 349L398 348z"/>
<path style="fill:#523a4f; stroke:none;" d="M783 348L783 377L813 377L813 348L783 348z"/>
<path style="fill:#81767d; stroke:none;" d="M813 348L813 377L783 377L783 378L814 378L813 348M362.333 349.667L362.667 350.333L362.333 349.667M397 349L398 350L397 349M411 349L411 353L412 353L411 349M485.333 349.667L485.667 350.333L485.333 349.667M511 349L511 352L512 352L511 349M784 376L785 376L785 350L812 350C807.704 348.197 786.949 346.552 784.603 351.318C781.649 357.322 784 369.342 784 376M396 350L397 351L396 350z"/>
<path style="fill:#fefefe; stroke:none;" d="M785 350L785 375L811 375L811 350L785 350z"/>
<path style="fill:#f3f8b7; stroke:none;" d="M811 350L811 375L785 375L785 376L812 376L811 350z"/>
<path style="fill:#81767d; stroke:none;" d="M395 351L396 352L395 351z"/>
<path style="fill:#f3f8b7; stroke:none;" d="M324.333 352.667L324.667 353.333L324.333 352.667z"/>
<path style="fill:#81767d; stroke:none;" d="M328 352L328 355L329 355L328 352M394 352L395 353L394 352M481 352L482 353L481 352M486 352L487 353L486 352z"/>
<path style="fill:#f3f8b7; stroke:none;" d="M543 352L543 355L544 355L543 352z"/>
<path style="fill:#81767d; stroke:none;" d="M325 353L325 357L326 357L325 353z"/>
<path style="fill:#f3f8b7; stroke:none;" d="M329 353L329 358L330 358L329 353M332.333 353.667L332.667 354.333L332.333 353.667z"/>
<path style="fill:#81767d; stroke:none;" d="M361 353L361 358L362 358L361 353M512 353L512 358L513 358L512 353M542 353L540 364L541 364L542 353M333 354L333 358L334 358L333 354z"/>
<path style="fill:#f3f8b7; stroke:none;" d="M325.333 357.667L325.667 358.333L325.333 357.667M542.333 357.667L542.667 358.333L542.333 357.667z"/>
<path style="fill:#fa68e3; stroke:none;" d="M831 357L831 370L977 370L977 357L831 357z"/>
<path style="fill:#81767d; stroke:none;" d="M326 358L327 365L328 365L326 358M329 358L329 361L330 361L329 358z"/>
<path style="fill:#f3f8b7; stroke:none;" d="M333 358L334 359L333 358M330 359L330 362L331 362L330 359z"/>
<path style="fill:#81767d; stroke:none;" d="M334 359L335 365L336 365L334 359M511 359L511 362L512 362L511 359M362.333 360.667L362.667 361.333L362.333 360.667z"/>
<path style="fill:#f3f8b7; stroke:none;" d="M541.333 361.667L541.667 362.333L541.333 361.667M326 362L327 363L326 362z"/>
<path style="fill:#81767d; stroke:none;" d="M330 362L330 365L331 365L330 362z"/>
<path style="fill:#f3f8b7; stroke:none;" d="M334 362L335 363L334 362z"/>
<path style="fill:#81767d; stroke:none;" d="M363.333 362.667L363.667 363.333L363.333 362.667M510 362L511 363L510 362z"/>
<path style="fill:#f3f8b7; stroke:none;" d="M331 363L331 366L332 366L331 363M632 429L679 383L698 365.028L717 364L759 364L733 363L698 363.603L678 382L632 429z"/>
<path style="fill:#81767d; stroke:none;" d="M364 364L365 365L364 364M509 364L510 365L509 364z"/>
<path style="fill:#f3f8b7; stroke:none;" d="M540.333 364.667L540.667 365.333L540.333 364.667z"/>
<path style="fill:#81767d; stroke:none;" d="M697 364L610 451C598.139 462.861 578.052 477.879 571 493C583.089 487.362 593.603 472.397 603 463L670 396C677.183 388.817 683.939 381.277 691.014 373.999C693.519 371.422 698.231 367.968 697 364z"/>
<path style="fill:#523a4f; stroke:none;" d="M697 365L697 366L758 365L740 364L697 365z"/>
<path style="fill:#81767d; stroke:none;" d="M758 364C740.79 369.087 716.974 365 699 365L699 366L744 366L758 364z"/>
<path style="fill:#f3f8b7; stroke:none;" d="M327 365L328 366L327 365M335 365L336 366L335 365z"/>
<path style="fill:#81767d; stroke:none;" d="M366.667 365.333L367.333 365.667L366.667 365.333M506.667 365.333L507.333 365.667L506.667 365.333M539.333 365.667L539.667 366.333L539.333 365.667M328.333 366.667L328.667 367.333L328.333 366.667M331.333 366.667L331.667 367.333L331.333 366.667M336.333 366.667L336.667 367.333L336.333 366.667z"/>
<path style="fill:#523a4f; stroke:none;" d="M696 366L616 446L572 492C585.67 482.37 597.177 467.823 609 456C628.482 436.518 649.062 417.662 667.286 397C674.74 388.549 693.356 376.906 696 366z"/>
<path style="fill:#f3f8b7; stroke:none;" d="M698 366L699 367L698 366M332 367L334 375L335 375L332 367M539.333 367.667L539.667 368.333L539.333 367.667M697 367L698 368L697 367M328.333 368.667L328.667 369.333L328.333 368.667M336 368L337 369L336 368z"/>
<path style="fill:#81767d; stroke:none;" d="M538.333 368.667L538.667 369.333L538.333 368.667z"/>
<path style="fill:#f3f8b7; stroke:none;" d="M696 368L697 369L696 368z"/>
<path style="fill:#81767d; stroke:none;" d="M329.333 369.667L329.667 370.333L329.333 369.667M337 369L338 373L339 373L337 369z"/>
<path style="fill:#f3f8b7; stroke:none;" d="M695 369L696 370L695 369z"/>
<path style="fill:#81767d; stroke:none;" d="M332.333 370.667L332.667 371.333L332.333 370.667M506 370L507 371L506 370z"/>
<path style="fill:#f3f8b7; stroke:none;" d="M538.333 370.667L538.667 371.333L538.333 370.667M694 370L695 371L694 370M329 371L330 372L329 371M337 371L338 372L337 371z"/>
<path style="fill:#81767d; stroke:none;" d="M537 371L535 377L536 377L537 371z"/>
<path style="fill:#f3f8b7; stroke:none;" d="M693 371L694 372L693 371z"/>
<path style="fill:#81767d; stroke:none;" d="M330 372L331 376L332 376L330 372z"/>
<path style="fill:#f3f8b7; stroke:none;" d="M692 372L693 373L692 372z"/>
<path style="fill:#81767d; stroke:none;" d="M333 373L334 374L333 373z"/>
<path style="fill:#f3f8b7; stroke:none;" d="M338 373L339 374L338 373z"/>
<path style="fill:#81767d; stroke:none;" d="M505 373L505 382L506 382L505 373z"/>
<path style="fill:#f3f8b7; stroke:none;" d="M537 373L538 374L537 373M691 373L692 374L691 373M330 374L331 375L330 374z"/>
<path style="fill:#81767d; stroke:none;" d="M339 374L344 386L345 386L339 374z"/>
<path style="fill:#f3f8b7; stroke:none;" d="M690 374L691 375L690 374z"/>
<path style="fill:#81767d; stroke:none;" d="M334.333 375.667L334.667 376.333L334.333 375.667z"/>
<path style="fill:#f3f8b7; stroke:none;" d="M536 375L537 376L536 375M689 375L690 376L689 375M331 376L332 377L331 376M335.333 376.667L335.667 377.333L335.333 376.667M339 376L340 377L339 376M688 376L689 377L688 376z"/>
<path style="fill:#81767d; stroke:none;" d="M332 377L336 387L337 387L332 377M368 377L368 381L369 381L368 377z"/>
<path style="fill:#f3f8b7; stroke:none;" d="M535.333 377.667L535.667 378.333L535.333 377.667M687 377L688 378L687 377z"/>
<path style="fill:#81767d; stroke:none;" d="M335 378L336 379L335 378z"/>
<path style="fill:#f3f8b7; stroke:none;" d="M340 378L341 379L340 378z"/>
<path style="fill:#81767d; stroke:none;" d="M534 378L533 381L534 378z"/>
<path style="fill:#f3f8b7; stroke:none;" d="M686 378L687 379L686 378M332 379L333 380L332 379M336 379L337 380L336 379z"/>
<path style="fill:#81767d; stroke:none;" d="M336.333 380.667L336.667 381.333L336.333 380.667z"/>
<path style="fill:#f3f8b7; stroke:none;" d="M341 380L342 381L341 380M534 380L535 381L534 380M333 381L334 382L333 381M337 381L341 390L342 390L337 381M533 381L532 384L533 381M683 381L684 382L683 381M342 382L343 383L342 382z"/>
<path style="fill:#81767d; stroke:none;" d="M504 382L504 386L505 386L504 382M532 382L533 383L532 382z"/>
<path style="fill:#f3f8b7; stroke:none;" d="M334 383L335 384L334 383z"/>
<path style="fill:#81767d; stroke:none;" d="M337 383L338 384L337 383M369 383L369 386L370 386L369 383z"/>
<path style="fill:#f3f8b7; stroke:none;" d="M343 384L344 385L343 384z"/>
<path style="fill:#81767d; stroke:none;" d="M531 384L523 397C526.675 393.963 531.009 388.971 531 384z"/>
<path style="fill:#f3f8b7; stroke:none;" d="M335 385L336 386L335 385z"/>
<path style="fill:#81767d; stroke:none;" d="M338 385L339 386L338 385z"/>
<path style="fill:#f3f8b7; stroke:none;" d="M531 385L532 386L531 385z"/>
<path style="fill:#81767d; stroke:none;" d="M345 386L346 387L345 386M337 387L338 388L337 387M339 387L340 388L339 387z"/>
<path style="fill:#f3f8b7; stroke:none;" d="M345 387L346 388L345 387z"/>
<path style="fill:#81767d; stroke:none;" d="M503 387L503 390L504 390L503 387z"/>
<path style="fill:#f3f8b7; stroke:none;" d="M530 387L531 388L530 387M337 388L338 389L337 388z"/>
<path style="fill:#81767d; stroke:none;" d="M346 388L347 391L348 391L346 388M370.333 388.667L370.667 389.333L370.333 388.667M338 389L339 392L340 392L338 389M340 389L341 390L340 389z"/>
<path style="fill:#f3f8b7; stroke:none;" d="M346 389L347 390L346 389M529 389L530 390L529 389M338 390L339 391L338 390z"/>
<path style="fill:#81767d; stroke:none;" d="M341 390L343 393L341 390M502 390L502 393L503 393L502 390z"/>
<path style="fill:#f3f8b7; stroke:none;" d="M528 390L529 391L528 390M782 422L783 422L783 391L814 391L790 390.001L782.603 392.318L782 422M342 391L343 392L342 391z"/>
<path style="fill:#81767d; stroke:none;" d="M348 391L349 394L350 394L348 391M371.333 391.667L371.667 392.333L371.333 391.667z"/>
<path style="fill:#523a4f; stroke:none;" d="M783 391L783 422L813 422L813 391L783 391z"/>
<path style="fill:#81767d; stroke:none;" d="M813 391L813 422L814 422L813 391M340 392L341 393L340 392z"/>
<path style="fill:#f3f8b7; stroke:none;" d="M343 392L345 395L343 392M348 392L349 393L348 392M527 392L528 393L527 392z"/>
<path style="fill:#81767d; stroke:none;" d="M784 420L785 420L785 393L811 393C806.777 391.228 786.926 389.599 784.603 394.318C781.543 400.538 784 413.097 784 420z"/>
<path style="fill:#f3f8b7; stroke:none;" d="M340 393L341 394L340 393z"/>
<path style="fill:#81767d; stroke:none;" d="M501 393L501 396L502 396L501 393z"/>
<path style="fill:#f3f8b7; stroke:none;" d="M526 393L527 394L526 393z"/>
<path style="fill:#fefefe; stroke:none;" d="M785 393L785 419L811 419L811 393L785 393z"/>
<path style="fill:#f3f8b7; stroke:none;" d="M811 393L811 419L785 419L785 420L812 420L811 393z"/>
<path style="fill:#81767d; stroke:none;" d="M341 394L342 395L341 394M343 394L344 395L343 394M350 394L352 396L350 394M372.333 394.667L372.667 395.333L372.333 394.667M342 395L343 398L344 398L342 395M344 395L345 396L344 395z"/>
<path style="fill:#f3f8b7; stroke:none;" d="M350 395L351 396L350 395M525 395L526 396L525 395M342 396L343 397L342 396M345 396L347 398L345 396M351 396L352 397L351 396z"/>
<path style="fill:#81767d; stroke:none;" d="M373.333 396.667L373.667 397.333L373.333 396.667M500.333 396.667L500.667 397.333L500.333 396.667z"/>
<path style="fill:#f3f8b7; stroke:none;" d="M524 396L525 397L524 396z"/>
<path style="fill:#81767d; stroke:none;" d="M345 397L346 398L345 397M352 397L353 398L352 397z"/>
<path style="fill:#f3f8b7; stroke:none;" d="M523 397L524 398L523 397z"/>
<path style="fill:#81767d; stroke:none;" d="M344 398L359 414L344 398M346 398L347 399L346 398M353 398L355 402L356 402L353 398M499.333 398.667L499.667 399.333L499.333 398.667M522 398L520 402L521 402L522 402L522 398z"/>
<path style="fill:#f3f8b7; stroke:none;" d="M344 399L345 400L344 399M347 399L348 400L347 399M353 399L354 400L353 399z"/>
<path style="fill:#81767d; stroke:none;" d="M374 399L375 400L374 399z"/>
<path style="fill:#f3f8b7; stroke:none;" d="M522 399L523 400L522 399M345 400L346 401L345 400M348 400L349 401L348 400M354 400L355 401L354 400z"/>
<path style="fill:#81767d; stroke:none;" d="M498.333 400.667L498.667 401.333L498.333 400.667z"/>
<path style="fill:#f3f8b7; stroke:none;" d="M521 400L522 401L521 400z"/>
<path style="fill:#523a4f; stroke:none;" d="M347 401L349 403L347 401z"/>
<path style="fill:#f3f8b7; stroke:none;" d="M349 401L350 402L349 401z"/>
<path style="fill:#81767d; stroke:none;" d="M375 401L376 402L375 401z"/>
<path style="fill:#f3f8b7; stroke:none;" d="M522 401L522 402L526 402L522 401z"/>
<path style="fill:#fa68e3; stroke:none;" d="M831 401L831 414L977 414L977 401L831 401z"/>
<path style="fill:#81767d; stroke:none;" d="M356 402L357 403L356 402M497.333 402.667L497.667 403.333L497.333 402.667M525.667 402.333L526.333 402.667L525.667 402.333z"/>
<path style="fill:#f3f8b7; stroke:none;" d="M527.667 402.333L528.333 402.667L527.667 402.333M350 403L351 404L350 403z"/>
<path style="fill:#81767d; stroke:none;" d="M357 403L358 404L357 403M376 403L377 404L376 403M529.667 403.333L530.333 403.667L529.667 403.333z"/>
<path style="fill:#f3f8b7; stroke:none;" d="M531 403L532 404L531 403M348 404L349 405L348 404M351 404L352 405L351 404z"/>
<path style="fill:#81767d; stroke:none;" d="M358 404L365 411L358 404M377.333 404.667L377.667 405.333L377.333 404.667M496.333 404.667L496.667 405.333L496.333 404.667M532 404L533 405L532 404z"/>
<path style="fill:#f3f8b7; stroke:none;" d="M533 404L534 405L533 404M349 405L350 406L349 405M352 405L353 406L352 405M358 405L359 406L358 405z"/>
<path style="fill:#81767d; stroke:none;" d="M517.667 405.333L518.333 405.667L517.667 405.333z"/>
<path style="fill:#f3f8b7; stroke:none;" d="M519 405L519 406L522 407L519 405z"/>
<path style="fill:#81767d; stroke:none;" d="M522 405L522 406L525 406L522 405M534 405L535 406L534 405z"/>
<path style="fill:#f3f8b7; stroke:none;" d="M535 405L536 406L535 405M350 406L351 407L350 406M353 406L354 407L353 406M359 406L360 407L359 406z"/>
<path style="fill:#81767d; stroke:none;" d="M378 406L379 407L378 406M495 406L496 407L495 406M520 406L521 407L520 406z"/>
<path style="fill:#f3f8b7; stroke:none;" d="M525.667 406.333L526.333 406.667L525.667 406.333z"/>
<path style="fill:#81767d; stroke:none;" d="M527 406L528 407L527 406M536 406L539 408L539 407L536 406z"/>
<path style="fill:#f3f8b7; stroke:none;" d="M537 406L538 407L537 406M351 407L352 408L351 407M360 407L361 408L360 407z"/>
<path style="fill:#81767d; stroke:none;" d="M494.333 407.667L494.667 408.333L494.333 407.667M522 407L523 408L522 407z"/>
<path style="fill:#f3f8b7; stroke:none;" d="M523 407L524 408L523 407M529 407L530 408L529 407z"/>
<path style="fill:#81767d; stroke:none;" d="M530 407L531 408L530 407z"/>
<path style="fill:#f3f8b7; stroke:none;" d="M352 408L353 409L352 408M354 408L355 409L354 408M361 408L362 409L361 408z"/>
<path style="fill:#81767d; stroke:none;" d="M379 408L380 409L379 408M524 408L526 410L524 408z"/>
<path style="fill:#f3f8b7; stroke:none;" d="M525 408L526 409L525 408M531 408L532 409L531 408z"/>
<path style="fill:#81767d; stroke:none;" d="M532 408L533 409L532 408M539 408L542 411L539 408z"/>
<path style="fill:#f3f8b7; stroke:none;" d="M540 408L541 409L540 408M355 409L356 410L355 409M362 409L363 410L362 409z"/>
<path style="fill:#81767d; stroke:none;" d="M380 409L381 410L380 409M493 409L494 410L493 409z"/>
<path style="fill:#f3f8b7; stroke:none;" d="M526 409L527 410L526 409M533 409L534 410L533 409z"/>
<path style="fill:#81767d; stroke:none;" d="M534 409L535 410L534 409z"/>
<path style="fill:#f3f8b7; stroke:none;" d="M541 409L542 410L541 409M354 410L355 411L354 410M356 410L357 411L356 410M363 410L364 411L363 410z"/>
<path style="fill:#81767d; stroke:none;" d="M381.333 410.667L381.667 411.333L381.333 410.667M492.333 410.667L492.667 411.333L492.333 410.667M527 410L536 419L527 410z"/>
<path style="fill:#f3f8b7; stroke:none;" d="M528 410L529 411L528 410M535 410L537 412L535 410z"/>
<path style="fill:#81767d; stroke:none;" d="M536 410L537 411L536 410z"/>
<path style="fill:#f3f8b7; stroke:none;" d="M542 410L543 411L542 410M355 411L356 412L355 411M357 411L358 412L357 411z"/>
<path style="fill:#81767d; stroke:none;" d="M365 411L366 412L365 411z"/>
<path style="fill:#f3f8b7; stroke:none;" d="M529 411L530 412L529 411z"/>
<path style="fill:#81767d; stroke:none;" d="M537 411L538 412L537 411M543 411L544 412L543 411z"/>
<path style="fill:#f3f8b7; stroke:none;" d="M356 412L357 413L356 412M358 412L359 413L358 412z"/>
<path style="fill:#81767d; stroke:none;" d="M366 412L367 413L366 412M382 412L383 413L382 412M491 412L492 413L491 412z"/>
<path style="fill:#f3f8b7; stroke:none;" d="M530 412L531 413L530 412z"/>
<path style="fill:#81767d; stroke:none;" d="M538 412L539 413L538 412M544 412L548 417L544 412z"/>
<path style="fill:#f3f8b7; stroke:none;" d="M357 413L358 414L357 413M359.333 413.667L359.667 414.333L359.333 413.667z"/>
<path style="fill:#81767d; stroke:none;" d="M367 413L368 414L367 413M383 413L384 414L383 413M490 413L491 414L490 413z"/>
<path style="fill:#f3f8b7; stroke:none;" d="M531 413L532 414L531 413M539 413L545 419L539 413z"/>
<path style="fill:#81767d; stroke:none;" d="M540 413L541 414L540 413z"/>
<path style="fill:#f3f8b7; stroke:none;" d="M545 413L546 414L545 413z"/>
<path style="fill:#81767d; stroke:none;" d="M368 414L369 415L368 414M384 414L385 415L384 414M489 414L490 415L489 414z"/>
<path style="fill:#f3f8b7; stroke:none;" d="M532 414L533 415L532 414z"/>
<path style="fill:#81767d; stroke:none;" d="M541 414L542 415L541 414z"/>
<path style="fill:#f3f8b7; stroke:none;" d="M546 414L547 415L546 414M369 415L371 417L369 415z"/>
<path style="fill:#81767d; stroke:none;" d="M370 415L371 416L370 415M385 415L386 416L385 415M488 415L489 416L488 415z"/>
<path style="fill:#f3f8b7; stroke:none;" d="M533 415L534 416L533 415z"/>
<path style="fill:#81767d; stroke:none;" d="M542 415L543 416L542 415z"/>
<path style="fill:#f3f8b7; stroke:none;" d="M547 415L548 416L547 415z"/>
<path style="fill:#81767d; stroke:none;" d="M371 416L372 417L371 416M487.333 416.667L487.667 417.333L487.333 416.667z"/>
<path style="fill:#f3f8b7; stroke:none;" d="M534 416L535 417L534 416z"/>
<path style="fill:#81767d; stroke:none;" d="M543 416L544 417L543 416M372 417L373 418L372 417z"/>
<path style="fill:#f3f8b7; stroke:none;" d="M535 417L536 418L535 417z"/>
<path style="fill:#81767d; stroke:none;" d="M544 417L545 418L544 417M548 417L550 420L548 417M373 418L374 419L373 418M387 418L388 419L387 418M486 418L487 419L486 418z"/>
<path style="fill:#f3f8b7; stroke:none;" d="M549 418L550 419L549 418M374 419L375 420L374 419z"/>
<path style="fill:#81767d; stroke:none;" d="M375 419L376 420L375 419M388 419L389 420L388 419M485 419L486 420L485 419z"/>
<path style="fill:#f3f8b7; stroke:none;" d="M536 419L538 421L536 419z"/>
<path style="fill:#81767d; stroke:none;" d="M545 419L550 429L551 429L545 419M376 420L377 421L376 420M536 420L537 421L536 420z"/>
<path style="fill:#f3f8b7; stroke:none;" d="M545 420L546 421L545 420M550 420L551 421L550 420M377 421L379 423L377 421z"/>
<path style="fill:#81767d; stroke:none;" d="M378 421L379 422L378 421M391 421L392 422L391 421M482 421L483 422L482 421M537 421L540 430L541 430L537 421z"/>
<path style="fill:#f3f8b7; stroke:none;" d="M546 421L547 422L546 421z"/>
<path style="fill:#81767d; stroke:none;" d="M550 421L551 422L550 421M379 422L380 423L379 422M392 422L393 423L392 422M481 422L482 423L481 422z"/>
<path style="fill:#f3f8b7; stroke:none;" d="M538 422L539 423L538 422M551 422L552 423L551 422M380 423L381 424L380 423z"/>
<path style="fill:#81767d; stroke:none;" d="M381 423L382 424L381 423M393 423L394 424L393 423M480 423L481 424L480 423z"/>
<path style="fill:#f3f8b7; stroke:none;" d="M547 423L548 424L547 423z"/>
<path style="fill:#81767d; stroke:none;" d="M551 423L553 432L554 432L551 423M382 424L383 425L382 424M394 424L395 425L394 424M479 424L480 425L479 424z"/>
<path style="fill:#f3f8b7; stroke:none;" d="M539 424L540 425L539 424M552 424L553 425L552 424M383 425L384 426L383 425z"/>
<path style="fill:#81767d; stroke:none;" d="M384 425L385 426L384 425M477 425L478 426L477 425z"/>
<path style="fill:#f3f8b7; stroke:none;" d="M548 425L549 426L548 425M385 426L386 427L385 426z"/>
<path style="fill:#81767d; stroke:none;" d="M386 426L387 427L386 426M397 426L398 427L397 426M476 426L477 427L476 426z"/>
<path style="fill:#f3f8b7; stroke:none;" d="M540 426L541 427L540 426M387 427L388 428L387 427z"/>
<path style="fill:#81767d; stroke:none;" d="M388 427L389 428L388 427M398 427L399 428L398 427M475 427L476 428L475 427z"/>
<path style="fill:#f3f8b7; stroke:none;" d="M549 427L550 428L549 427M553 427L554 428L553 427M389 428L390 429L389 428z"/>
<path style="fill:#81767d; stroke:none;" d="M390 428L391 429L390 428M400 428L401 429L400 428M473 428L474 429L473 428z"/>
<path style="fill:#f3f8b7; stroke:none;" d="M391 429L392 430L391 429z"/>
<path style="fill:#81767d; stroke:none;" d="M392 429L393 430L392 429M402 429L403 430L402 429M471 429L472 430L471 429z"/>
<path style="fill:#f3f8b7; stroke:none;" d="M541.333 429.667L541.667 430.333L541.333 429.667M550.333 429.667L550.667 430.333L550.333 429.667M393 430L394 431L393 430z"/>
<path style="fill:#81767d; stroke:none;" d="M394 430L395 431L394 430M403 430L404 431L403 430M470 430L471 431L470 430M551 430L551 433L552 433L551 430z"/>
<path style="fill:#f3f8b7; stroke:none;" d="M554 430L554 433L555 433L554 430M630 430L631 431L630 430M395 431L396 432L395 431z"/>
<path style="fill:#81767d; stroke:none;" d="M396 431L397 432L396 431M405 431L406 432L405 431M468 431L469 432L468 431M541 431L541 435L542 435L541 431z"/>
<path style="fill:#f3f8b7; stroke:none;" d="M629 431L630 432L629 431M398 432L399 433L398 432z"/>
<path style="fill:#81767d; stroke:none;" d="M399 432L400 433L399 432M407 432L408 433L407 432M466 432L467 433L466 432z"/>
<path style="fill:#f3f8b7; stroke:none;" d="M400 433L401 434L400 433z"/>
<path style="fill:#81767d; stroke:none;" d="M401.667 433.333L402.333 433.667L401.667 433.333M409.667 433.333L410.333 433.667L409.667 433.333M463.667 433.333L464.333 433.667L463.667 433.333z"/>
<path style="fill:#f3f8b7; stroke:none;" d="M542 433L542 436L543 436L542 433M551 433L551 436L552 436L551 433z"/>
<path style="fill:#81767d; stroke:none;" d="M554 433L554 442L553 442L553 434L552 434L551 452L552 452C554.292 446.577 556.359 438.625 554 433z"/>
<path style="fill:#f3f8b7; stroke:none;" d="M403 434L404 435L403 434z"/>
<path style="fill:#81767d; stroke:none;" d="M404.667 434.333L405.333 434.667L404.667 434.333M412 434L413 435L412 434M461 434L462 435L461 434z"/>
<path style="fill:#f3f8b7; stroke:none;" d="M631 434L632 435L631 434M406 435L407 436L406 435z"/>
<path style="fill:#81767d; stroke:none;" d="M407.667 435.333L408.333 435.667L407.667 435.333M415 435L416 436L415 435M458 435L459 436L458 435M467 435L467 436L475 460L476 460L470 435L467 435z"/>
<path style="fill:#f3f8b7; stroke:none;" d="M630 435L631 436L630 435M409.667 436.333L410.333 436.667L409.667 436.333z"/>
<path style="fill:#81767d; stroke:none;" d="M411.667 436.333L412.333 436.667L411.667 436.333M418 436L419 437L418 436M455 436L456 437L455 436M463.667 436.333L464.333 436.667L463.667 436.333z"/>
<path style="fill:#f3f8b7; stroke:none;" d="M465 436L466 437L465 436z"/>
<path style="fill:#81767d; stroke:none;" d="M542 436L542 444L543 444L542 436z"/>
<path style="fill:#f3f8b7; stroke:none;" d="M629 436L630 437L629 436M413.667 437.333L414.333 437.667L413.667 437.333z"/>
<path style="fill:#81767d; stroke:none;" d="M415.667 437.333L416.333 437.667L415.667 437.333M420 438L420 439L424 438L420 438M450.667 437.333L451.333 437.667L450.667 437.333M459.667 437.333L460.333 437.667L459.667 437.333z"/>
<path style="fill:#f3f8b7; stroke:none;" d="M461 437L462 438L461 437M628 437L629 438L628 437M418.667 438.333L419.333 438.667L418.667 438.333z"/>
<path style="fill:#523a4f; stroke:none;" d="M423 438L423 439L427 439L423 438z"/>
<path style="fill:#81767d; stroke:none;" d="M427 438L427 440L436 440L427 438M440 439L440 440L449 440L440 439M453 438L453 439L456 439L453 438z"/>
<path style="fill:#f3f8b7; stroke:none;" d="M456 438L457 439L456 438M627 438L628 439L627 438M425.667 439.333L426.333 439.667L425.667 439.333z"/>
<path style="fill:#523a4f; stroke:none;" d="M436 439L436 440L440 440L436 439z"/>
<path style="fill:#f3f8b7; stroke:none;" d="M449.667 439.333L450.333 439.667L449.667 439.333M626 439L627 440L626 439M625 440L626 441L625 440M624 441L625 442L624 441M554 442L554 445L555 445L554 442M623 442L624 443L623 442M622 443L623 444L622 443M542 444L542 447L543 447L542 444M621 444L622 445L621 444M469.333 445.667L469.667 446.333L469.333 445.667z"/>
<path style="fill:#81767d; stroke:none;" d="M541 445L541 449L542 449L541 445z"/>
<path style="fill:#f3f8b7; stroke:none;" d="M620 445L621 446L620 445M551 446L551 449L552 449L551 446M619 446L620 447L619 446M618 447L619 448L618 447M553 448L554 449L553 448M617 448L618 449L617 448M541.333 449.667L541.667 450.333L541.333 449.667M616 449L617 450L616 449M470 450L471 451L470 450z"/>
<path style="fill:#81767d; stroke:none;" d="M540.333 450.667L540.667 451.333L540.333 450.667z"/>
<path style="fill:#f3f8b7; stroke:none;" d="M615 450L616 451L615 450M550 451L549 456C551.28 454.36 551.5 453.362 550 451M552 451L553 452L552 451M614 451L615 452L614 451M540.333 452.667L540.667 453.333L540.333 452.667M613 452L614 453L613 452M471 453L472 454L471 453z"/>
<path style="fill:#81767d; stroke:none;" d="M539 453L535 462L536 462L539 453z"/>
<path style="fill:#f3f8b7; stroke:none;" d="M612 453L613 454L612 453M611 454L612 455L611 454M472 455L473 456L472 455M539 455L540 456L539 455M610 455L611 456L610 455M609 456L610 457L609 456M473 457L453 458.09L398 461C397.999 472.851 395.936 484.354 386.96 492.896C383.145 496.526 377.043 497.93 374 502L347 503C360.161 526.756 359 552.591 359 579L524 579C524 566.61 524.005 553.34 522.83 541C521.921 531.449 520.165 520.049 524 511C518.077 509.975 512.268 504.784 507 501.861C491.165 493.073 470.74 480.902 475 459L473 457M538 457L539 458L538 457M608 457L609 458L608 457z"/>
<path style="fill:#81767d; stroke:none;" d="M460 458L460 459L468 459L460 458z"/>
<path style="fill:#fefefe; stroke:none;" d="M473 458L474 459L473 458z"/>
<path style="fill:#f3f8b7; stroke:none;" d="M607 458L608 459L607 458z"/>
<path style="fill:#81767d; stroke:none;" d="M435 459L435 460L443 460L435 459z"/>
<path style="fill:#f3f8b7; stroke:none;" d="M537 459L538 460L537 459M606 459L607 460L606 459z"/>
<path style="fill:#81767d; stroke:none;" d="M411 460L411 461L418 461L411 460z"/>
<path style="fill:#f3f8b7; stroke:none;" d="M475 460L476 461L475 460M536 460L537 461L536 460M605 460L606 461L605 460z"/>
<path style="fill:#81767d; stroke:none;" d="M476 461L477 462L476 461z"/>
<path style="fill:#f3f8b7; stroke:none;" d="M604 461L605 462L604 461z"/>
<path style="fill:#81767d; stroke:none;" d="M477 462L484 469L477 462M534 462L528 469L534 462z"/>
<path style="fill:#f3f8b7; stroke:none;" d="M603 462L604 463L603 462M477 463L478 464L477 463M534 463L535 464L534 463M602 463L603 464L602 463M478 464L479 465L478 464M533 464L534 465L533 464M601 464L602 465L601 464M479 465L480 466L479 465M532 465L533 466L532 465M600 465L601 466L600 465M480 466L481 467L480 466M531 466L532 467L531 466M595 466L596 467L595 466M599 466L600 467L599 466M481 467L482 468L481 467M530 467L531 468L530 467M594 467L595 468L594 467M598 467L599 468L598 467M482 468L483 469L482 468M529 468L530 469L529 468M593 468L594 469L593 468M597 468L598 469L597 468z"/>
<path style="fill:#81767d; stroke:none;" d="M484 469L485 470L484 469M527 469L528 470L527 469z"/>
<path style="fill:#f3f8b7; stroke:none;" d="M592 469L593 470L592 469M596 469L597 470L596 469M485 470L486 471L485 470z"/>
<path style="fill:#81767d; stroke:none;" d="M486 470L487 471L486 470M525 470L526 471L525 470z"/>
<path style="fill:#f3f8b7; stroke:none;" d="M526 470L527 471L526 470M591 470L592 471L591 470M595 470L596 471L595 470z"/>
<path style="fill:#81767d; stroke:none;" d="M487 471L487 472L490 473L487 471M522 473L525 472L522 473z"/>
<path style="fill:#f3f8b7; stroke:none;" d="M590 471L591 472L590 471M594 471L595 472L594 471M488 472L489 473L488 472M523 472L524 473L523 472M589 472L590 473L589 472M593 472L594 473L593 472z"/>
<path style="fill:#81767d; stroke:none;" d="M491.667 473.333L492.333 473.667L491.667 473.333M519.667 473.333L520.333 473.667L519.667 473.333z"/>
<path style="fill:#f3f8b7; stroke:none;" d="M588 473L589 474L588 473M592 473L593 474L592 473M493 474L494 475L493 474z"/>
<path style="fill:#81767d; stroke:none;" d="M494 474L495 475L494 474M516.667 474.333L517.333 474.667L516.667 474.333z"/>
<path style="fill:#f3f8b7; stroke:none;" d="M518 474L519 475L518 474M587 474L588 475L587 474M591 474L592 475L591 474M496 475L497 476L496 475z"/>
<path style="fill:#81767d; stroke:none;" d="M497 475L497 476L500 476L497 475M512 475L512 476L515 476L512 475z"/>
<path style="fill:#f3f8b7; stroke:none;" d="M515 475L516 476L515 475M586 475L587 476L586 475M590 475L591 476L590 475M501 476L501 477L505 477L501 476z"/>
<path style="fill:#81767d; stroke:none;" d="M505.667 476.333L506.333 476.667L505.667 476.333z"/>
<path style="fill:#f3f8b7; stroke:none;" d="M507 476L507 477L511 477L507 476M585 476L586 477L585 476M589 476L590 477L589 476M584 477L585 478L584 477M588 477L589 478L588 477M583 478L584 479L583 478M587 478L588 479L587 478M582 479L583 480L582 479M586 479L587 480L586 479M581 480L582 481L581 480M585 480L586 481L585 480M580 481L581 482L580 481M584 481L585 482L584 481M579 482L580 483L579 482M583 482L584 483L583 482M578 483L579 484L578 483M582 483L583 484L582 483M577 484L578 485L577 484M581 484L582 485L581 484M576 485L577 486L576 485M580 485L581 486L580 485M575 486L576 487L575 486M579 486L580 487L579 486M574 487L575 488L574 487M578 487L579 488L578 487M573 488L574 489L573 488M577 488L578 489L577 488M572 489L573 490L572 489M576 489L577 490L576 489M571 490L572 491L571 490M575 490L576 491L575 490M570.333 491.667L570.667 492.333L570.333 491.667M574 491L575 492L574 491M573 492L574 493L573 492M321 496L322 497L321 496z"/>
<path style="fill:#81767d; stroke:none;" d="M322 496L322 497L325 497L322 496z"/>
<path style="fill:#523a4f; stroke:none;" d="M313 500C315.039 511.852 320.623 522.932 322.562 535C324.226 545.355 324.827 556.534 323.83 567C323.547 569.97 323.635 575.164 321.397 577.397C317.533 581.251 305.108 579 300 579L238 579C228.897 579 211.115 575.594 204.434 583.225C200.856 587.31 202 593.981 202 599L202 639L202 797C202 802.792 204.265 814.737 200.972 819.682C198.672 823.137 192.489 822.28 189.214 824.854C180.66 831.575 185.566 845.626 190 853L54 853L54 854L1026 854L1026 853L772 853L692 853L651 852C657.625 844.613 661.225 828.956 649.985 823.318C644.893 820.764 637.537 822 632 822L632 644L632 600C632 594.24 633.16 586.859 628.606 582.419C623.536 577.476 614.433 579 608 579L555 579C555.351 561.991 557 545.058 557 528C557 522.963 558.136 512.776 554.821 508.603C550.194 502.781 526.833 506.472 524.009 513.043C520.912 520.252 523.396 530.479 523.911 538C524.835 551.505 525 565.47 525 579L358 579C358 558.44 359.29 536.877 352.971 517C349.083 504.769 339.867 495.135 326 496.329C321.452 496.72 317.213 498.378 313 500z"/>
<path style="fill:#81767d; stroke:none;" d="M330 496L330 497L333 497L330 496z"/>
<path style="fill:#f3f8b7; stroke:none;" d="M333 496L334 497L333 496M317 497L318 498L317 497z"/>
<path style="fill:#81767d; stroke:none;" d="M318.667 497.333L319.333 497.667L318.667 497.333M335 497L336 498L335 497z"/>
<path style="fill:#f3f8b7; stroke:none;" d="M336 497L337 498L336 497M315 498L316 499L315 498z"/>
<path style="fill:#81767d; stroke:none;" d="M316 498L317 499L316 498M338 498L339 499L338 498z"/>
<path style="fill:#f3f8b7; stroke:none;" d="M339 498L340 499L339 498M313 499L314 500L313 499z"/>
<path style="fill:#81767d; stroke:none;" d="M314 499L315 500L314 499M340 499L341 500L340 499z"/>
<path style="fill:#f3f8b7; stroke:none;" d="M341 499L342 500L341 499M312 500L313 501L312 500z"/>
<path style="fill:#81767d; stroke:none;" d="M342 500L343 501L342 500z"/>
<path style="fill:#f3f8b7; stroke:none;" d="M343 500L344 501L343 500z"/>
<path style="fill:#81767d; stroke:none;" d="M312 501L313 502L312 501z"/>
<path style="fill:#f3f8b7; stroke:none;" d="M344 501L345 502L344 501z"/>
<path style="fill:#81767d; stroke:none;" d="M373 501L374 502L373 501z"/>
<path style="fill:#f3f8b7; stroke:none;" d="M312 502C305.697 505.582 297.496 504.917 290.536 507.38C278.496 511.642 266.356 527.741 270 541C262.331 547.202 265.754 569.684 264 579L322 579C322.204 554.373 326.605 523.999 312 502z"/>
<path style="fill:#81767d; stroke:none;" d="M345 502L346 503L345 502M368 502L369 503L368 502M313.333 503.667L313.667 504.333L313.333 503.667M346 503L347 504L346 503M357 503L357 504L361 504L357 503M304 504L304 505L307 505L304 504M347 504L348 505L347 504M298.667 505.333L299.333 505.667L298.667 505.333M314.333 505.667L314.667 506.333L314.333 505.667M348.333 505.667L348.667 506.333L348.333 505.667M294 506L295 507L294 506M291 507L292 508L291 507M349 507L351 513L352 513L349 507z"/>
<path style="fill:#f3f8b7; stroke:none;" d="M528 507L529 508L528 507z"/>
<path style="fill:#81767d; stroke:none;" d="M529 507L530 508L529 507M555.333 507.667L555.667 508.333L555.333 507.667M315.333 508.667L315.667 509.333L315.333 508.667z"/>
<path style="fill:#f3f8b7; stroke:none;" d="M526 508L527 509L526 508z"/>
<path style="fill:#81767d; stroke:none;" d="M527 508L528 509L527 508z"/>
<path style="fill:#f3f8b7; stroke:none;" d="M556.333 508.667L556.667 509.333L556.333 508.667z"/>
<path style="fill:#81767d; stroke:none;" d="M525 509L526 510L525 509M524.333 510.667L524.667 511.333L524.333 510.667M556 510L555 579L556 579L558 531L556 510M316.333 511.667L316.667 512.333L316.333 511.667M523 512C517.114 531.913 523.998 558.375 524 579L525 579L523.089 530L523 512M317 513L317 516L318 516L317 513M352 513L353 519L354 519L352 513z"/>
<path style="fill:#f3f8b7; stroke:none;" d="M557 513L558 514L557 513M558 514L556 579L604 579L602 571L602 570C607.722 564.799 597.54 544.144 592 541C590.346 528.063 569.551 516.744 558 514z"/>
<path style="fill:#81767d; stroke:none;" d="M318 517L318 520L319 520L318 517M354 519L354 523L355 523L354 519M319 520L319 523L320 523L319 520M355 523L358 579L359 579C359 562.57 362.949 537.951 355 523M320 524L320 528L321 528L320 524M321 529L321 533L322 533L321 529M322 534L322 541L323 541L322 534z"/>
<path style="fill:#f3f8b7; stroke:none;" d="M110 540L111 541L110 540z"/>
<path style="fill:#523a4f; stroke:none;" d="M111 540L112 541L111 540z"/>
<path style="fill:#81767d; stroke:none;" d="M112 540L113 541L112 540z"/>
<path style="fill:#523a4f; stroke:none;" d="M113 540L113 541L120 541L113 540z"/>
<path style="fill:#81767d; stroke:none;" d="M120 540L121 541L120 540z"/>
<path style="fill:#523a4f; stroke:none;" d="M121 540L122 541L121 540z"/>
<path style="fill:#81767d; stroke:none;" d="M122 540L123 541L122 540z"/>
<path style="fill:#523a4f; stroke:none;" d="M123 540L124 541L123 540z"/>
<path style="fill:#81767d; stroke:none;" d="M124 540L125 541L124 540z"/>
<path style="fill:#523a4f; stroke:none;" d="M125 540L125 541L129 541L125 540z"/>
<path style="fill:#81767d; stroke:none;" d="M129 540L130 541L129 540z"/>
<path style="fill:#523a4f; stroke:none;" d="M130 540L130 541L134 541L130 540z"/>
<path style="fill:#81767d; stroke:none;" d="M134 540L135 541L134 540z"/>
<path style="fill:#523a4f; stroke:none;" d="M135 540L135 541L139 541L135 540z"/>
<path style="fill:#81767d; stroke:none;" d="M139.667 540.333L140.333 540.667L139.667 540.333z"/>
<path style="fill:#523a4f; stroke:none;" d="M141.667 540.333L142.333 540.667L141.667 540.333z"/>
<path style="fill:#81767d; stroke:none;" d="M143 540L143 541L146 541L143 540z"/>
<path style="fill:#523a4f; stroke:none;" d="M146 540L147 541L146 540z"/>
<path style="fill:#81767d; stroke:none;" d="M147.667 540.333L148.333 540.667L147.667 540.333z"/>
<path style="fill:#523a4f; stroke:none;" d="M149 540L150 541L149 540z"/>
<path style="fill:#81767d; stroke:none;" d="M150.667 540.333L151.333 540.667L150.667 540.333z"/>
<path style="fill:#523a4f; stroke:none;" d="M152 540L153 541L152 540z"/>
<path style="fill:#81767d; stroke:none;" d="M153 540L153 541L156 541L153 540z"/>
<path style="fill:#523a4f; stroke:none;" d="M156.667 540.333L157.333 540.667L156.667 540.333z"/>
<path style="fill:#81767d; stroke:none;" d="M158.667 540.333L159.333 540.667L158.667 540.333z"/>
<path style="fill:#523a4f; stroke:none;" d="M160 540L161 541L160 540z"/>
<path style="fill:#81767d; stroke:none;" d="M161 540L162 541L161 540z"/>
<path style="fill:#523a4f; stroke:none;" d="M162 540L163 541L162 540z"/>
<path style="fill:#81767d; stroke:none;" d="M163.667 540.333L164.333 540.667L163.667 540.333z"/>
<path style="fill:#523a4f; stroke:none;" d="M165.667 540.333L166.333 540.667L165.667 540.333z"/>
<path style="fill:#81767d; stroke:none;" d="M167 540L168 541L167 540z"/>
<path style="fill:#523a4f; stroke:none;" d="M168 540L169 541L168 540z"/>
<path style="fill:#81767d; stroke:none;" d="M169 540L169 541L172 541L169 540z"/>
<path style="fill:#523a4f; stroke:none;" d="M172 540L172 541L176 541L172 540z"/>
<path style="fill:#81767d; stroke:none;" d="M176 540L177 541L176 540z"/>
<path style="fill:#523a4f; stroke:none;" d="M177 540L178 541L177 540z"/>
<path style="fill:#81767d; stroke:none;" d="M178 540L178 541L181 541L178 540z"/>
<path style="fill:#523a4f; stroke:none;" d="M181.667 540.333L182.333 540.667L181.667 540.333z"/>
<path style="fill:#81767d; stroke:none;" d="M183 540L183 541L186 541L183 540z"/>
<path style="fill:#523a4f; stroke:none;" d="M186 540L186 541L191 541L186 540z"/>
<path style="fill:#81767d; stroke:none;" d="M191 540L191 541L194 541L191 540z"/>
<path style="fill:#523a4f; stroke:none;" d="M194 540L194 541L200 541L194 540z"/>
<path style="fill:#81767d; stroke:none;" d="M200.667 540.333L201.333 540.667L200.667 540.333z"/>
<path style="fill:#523a4f; stroke:none;" d="M202.667 540.333L203.333 540.667L202.667 540.333z"/>
<path style="fill:#81767d; stroke:none;" d="M204 540L205 541L204 540z"/>
<path style="fill:#523a4f; stroke:none;" d="M205 540L205 541L209 541L205 540z"/>
<path style="fill:#81767d; stroke:none;" d="M209 540L209 541L212 541L209 540z"/>
<path style="fill:#523a4f; stroke:none;" d="M212.667 540.333L213.333 540.667L212.667 540.333z"/>
<path style="fill:#81767d; stroke:none;" d="M214 540L214 541L218 541L214 540z"/>
<path style="fill:#523a4f; stroke:none;" d="M218 540L219 541L218 540z"/>
<path style="fill:#81767d; stroke:none;" d="M219 540L219 541L222 541L219 540z"/>
<path style="fill:#523a4f; stroke:none;" d="M222 540L222 541L225 541L222 540z"/>
<path style="fill:#81767d; stroke:none;" d="M225 540L225 541L228 541L225 540z"/>
<path style="fill:#523a4f; stroke:none;" d="M228.667 540.333L229.333 540.667L228.667 540.333z"/>
<path style="fill:#81767d; stroke:none;" d="M230 540L230 541L233 541L230 540z"/>
<path style="fill:#523a4f; stroke:none;" d="M233 540L234 541L233 540z"/>
<path style="fill:#81767d; stroke:none;" d="M234 540L234 541L238 541L234 540z"/>
<path style="fill:#523a4f; stroke:none;" d="M238 540L238 541L241 541L238 540z"/>
<path style="fill:#81767d; stroke:none;" d="M241 540L241 541L244 541L241 540z"/>
<path style="fill:#523a4f; stroke:none;" d="M244 540L245 541L244 540z"/>
<path style="fill:#81767d; stroke:none;" d="M245 540L245 541L250 541L245 540z"/>
<path style="fill:#523a4f; stroke:none;" d="M250 540L250 541L254 541L250 540z"/>
<path style="fill:#81767d; stroke:none;" d="M254.667 540.333L255.333 540.667L254.667 540.333z"/>
<path style="fill:#523a4f; stroke:none;" d="M256 540L256 541L259 541L256 540z"/>
<path style="fill:#81767d; stroke:none;" d="M259.667 540.333L260.333 540.667L259.667 540.333z"/>
<path style="fill:#523a4f; stroke:none;" d="M261 540L262 541L261 540z"/>
<path style="fill:#81767d; stroke:none;" d="M262 540L263 541L262 540z"/>
<path style="fill:#523a4f; stroke:none;" d="M263 540L263 541L269 541L263 540z"/>
<path style="fill:#81767d; stroke:none;" d="M269 540L270 541L269 540M592 540L593 541L592 540z"/>
<path style="fill:#523a4f; stroke:none;" d="M593 540L594 541L593 540z"/>
<path style="fill:#81767d; stroke:none;" d="M594 540L595 541L594 540z"/>
<path style="fill:#523a4f; stroke:none;" d="M595 540L596 541L595 540z"/>
<path style="fill:#81767d; stroke:none;" d="M596.667 540.333L597.333 540.667L596.667 540.333z"/>
<path style="fill:#523a4f; stroke:none;" d="M598 540L599 541L598 540z"/>
<path style="fill:#81767d; stroke:none;" d="M599 540L600 541L599 540z"/>
<path style="fill:#523a4f; stroke:none;" d="M600 540L600 541L603 541L600 540z"/>
<path style="fill:#81767d; stroke:none;" d="M603 540L604 541L603 540z"/>
<path style="fill:#523a4f; stroke:none;" d="M604 540L604 541L607 541L604 540z"/>
<path style="fill:#81767d; stroke:none;" d="M607 540L608 541L607 540z"/>
<path style="fill:#523a4f; stroke:none;" d="M608 540L609 541L608 540z"/>
<path style="fill:#81767d; stroke:none;" d="M609.667 540.333L610.333 540.667L609.667 540.333z"/>
<path style="fill:#523a4f; stroke:none;" d="M611.667 540.333L612.333 540.667L611.667 540.333z"/>
<path style="fill:#81767d; stroke:none;" d="M613 540L614 541L613 540z"/>
<path style="fill:#523a4f; stroke:none;" d="M614.667 540.333L615.333 540.667L614.667 540.333z"/>
<path style="fill:#81767d; stroke:none;" d="M616.667 540.333L617.333 540.667L616.667 540.333z"/>
<path style="fill:#523a4f; stroke:none;" d="M618.667 540.333L619.333 540.667L618.667 540.333z"/>
<path style="fill:#81767d; stroke:none;" d="M620.667 540.333L621.333 540.667L620.667 540.333z"/>
<path style="fill:#523a4f; stroke:none;" d="M622 540L623 541L622 540z"/>
<path style="fill:#81767d; stroke:none;" d="M623 540L623 541L626 541L623 540z"/>
<path style="fill:#523a4f; stroke:none;" d="M626 540L627 541L626 540z"/>
<path style="fill:#81767d; stroke:none;" d="M627.667 540.333L628.333 540.667L627.667 540.333z"/>
<path style="fill:#523a4f; stroke:none;" d="M629 540L630 541L629 540z"/>
<path style="fill:#81767d; stroke:none;" d="M630 540L630 541L638 541L630 540z"/>
<path style="fill:#523a4f; stroke:none;" d="M638.667 540.333L639.333 540.667L638.667 540.333z"/>
<path style="fill:#81767d; stroke:none;" d="M640 540L640 541L645 541L640 540z"/>
<path style="fill:#523a4f; stroke:none;" d="M645 540L646 541L645 540z"/>
<path style="fill:#81767d; stroke:none;" d="M646 540L646 541L653 541L646 540z"/>
<path style="fill:#523a4f; stroke:none;" d="M653 540L654 541L653 540z"/>
<path style="fill:#81767d; stroke:none;" d="M654 540L655 541L654 540z"/>
<path style="fill:#523a4f; stroke:none;" d="M655 540L656 541L655 540z"/>
<path style="fill:#81767d; stroke:none;" d="M656 540L656 541L660 541L656 540z"/>
<path style="fill:#523a4f; stroke:none;" d="M660 540L660 541L670 541L660 540z"/>
<path style="fill:#81767d; stroke:none;" d="M670 540L671 541L670 540z"/>
<path style="fill:#523a4f; stroke:none;" d="M671 540L671 541L684 541L671 540z"/>
<path style="fill:#81767d; stroke:none;" d="M684 540L684 541L690 541L684 540z"/>
<path style="fill:#523a4f; stroke:none;" d="M690 540L691 541L690 540z"/>
<path style="fill:#81767d; stroke:none;" d="M691 540L691 541L699 541L691 540z"/>
<path style="fill:#523a4f; stroke:none;" d="M699.667 540.333L700.333 540.667L699.667 540.333z"/>
<path style="fill:#81767d; stroke:none;" d="M701 540L701 541L705 541L701 540z"/>
<path style="fill:#523a4f; stroke:none;" d="M705 540L706 541L705 540z"/>
<path style="fill:#81767d; stroke:none;" d="M706 540L706 541L709 541L706 540z"/>
<path style="fill:#523a4f; stroke:none;" d="M709 540L709 541L712 541L709 540z"/>
<path style="fill:#81767d; stroke:none;" d="M712 540L712 541L715 541L712 540z"/>
<path style="fill:#523a4f; stroke:none;" d="M715 540L716 541L715 540z"/>
<path style="fill:#81767d; stroke:none;" d="M716 540L716 541L721 541L716 540z"/>
<path style="fill:#523a4f; stroke:none;" d="M721 540L722 541L721 540z"/>
<path style="fill:#81767d; stroke:none;" d="M722 540L722 541L730 541L722 540z"/>
<path style="fill:#523a4f; stroke:none;" d="M730.667 540.333L731.333 540.667L730.667 540.333z"/>
<path style="fill:#81767d; stroke:none;" d="M732 540L732 541L736 541L732 540z"/>
<path style="fill:#523a4f; stroke:none;" d="M736 540L737 541L736 540z"/>
<path style="fill:#81767d; stroke:none;" d="M737 540L737 541L741 541L737 540z"/>
<path style="fill:#523a4f; stroke:none;" d="M741.667 540.333L742.333 540.667L741.667 540.333z"/>
<path style="fill:#81767d; stroke:none;" d="M743 540L743 541L746 541L743 540z"/>
<path style="fill:#523a4f; stroke:none;" d="M746 540L747 541L746 540z"/>
<path style="fill:#81767d; stroke:none;" d="M747 540L747 541L751 541L747 540z"/>
<path style="fill:#523a4f; stroke:none;" d="M751.667 540.333L752.333 540.667L751.667 540.333z"/>
<path style="fill:#81767d; stroke:none;" d="M753 540L753 541L757 541L753 540z"/>
<path style="fill:#523a4f; stroke:none;" d="M757.667 540.333L758.333 540.667L757.667 540.333z"/>
<path style="fill:#81767d; stroke:none;" d="M759 540L760 541L759 540z"/>
<path style="fill:#523a4f; stroke:none;" d="M760.667 540.333L761.333 540.667L760.667 540.333z"/>
<path style="fill:#81767d; stroke:none;" d="M762.667 540.333L763.333 540.667L762.667 540.333z"/>
<path style="fill:#523a4f; stroke:none;" d="M764 540L765 541L764 540z"/>
<path style="fill:#81767d; stroke:none;" d="M765 540L765 541L769 541L765 540z"/>
<path style="fill:#523a4f; stroke:none;" d="M769 540L769 541L778 541L769 540z"/>
<path style="fill:#81767d; stroke:none;" d="M778 540L778 541L783 541L778 540z"/>
<path style="fill:#523a4f; stroke:none;" d="M783 540L784 541L783 540z"/>
<path style="fill:#81767d; stroke:none;" d="M784 540L784 541L793 541L784 540z"/>
<path style="fill:#523a4f; stroke:none;" d="M793 540L794 541L793 540z"/>
<path style="fill:#81767d; stroke:none;" d="M794 540L795 541L794 540z"/>
<path style="fill:#523a4f; stroke:none;" d="M795 540L796 541L795 540z"/>
<path style="fill:#81767d; stroke:none;" d="M796 540L796 541L800 541L796 540z"/>
<path style="fill:#523a4f; stroke:none;" d="M800 540L800 541L803 541L800 540z"/>
<path style="fill:#81767d; stroke:none;" d="M803 540L804 541L803 540z"/>
<path style="fill:#523a4f; stroke:none;" d="M804.667 540.333L805.333 540.667L804.667 540.333z"/>
<path style="fill:#81767d; stroke:none;" d="M806 540L807 541L806 540z"/>
<path style="fill:#523a4f; stroke:none;" d="M807.667 540.333L808.333 540.667L807.667 540.333z"/>
<path style="fill:#81767d; stroke:none;" d="M809 540L810 541L809 540z"/>
<path style="fill:#523a4f; stroke:none;" d="M810.667 540.333L811.333 540.667L810.667 540.333z"/>
<path style="fill:#81767d; stroke:none;" d="M812 540L812 541L817 541L812 540z"/>
<path style="fill:#523a4f; stroke:none;" d="M817 540L817 541L821 541L817 540z"/>
<path style="fill:#81767d; stroke:none;" d="M821 540L822 541L821 540z"/>
<path style="fill:#523a4f; stroke:none;" d="M822 540L823 541L822 540z"/>
<path style="fill:#81767d; stroke:none;" d="M823.667 540.333L824.333 540.667L823.667 540.333z"/>
<path style="fill:#523a4f; stroke:none;" d="M825 540L826 541L825 540z"/>
<path style="fill:#81767d; stroke:none;" d="M826 540L826 541L831 541L826 540z"/>
<path style="fill:#523a4f; stroke:none;" d="M831 540L831 541L835 541L831 540z"/>
<path style="fill:#81767d; stroke:none;" d="M835 540L836 541L835 540z"/>
<path style="fill:#523a4f; stroke:none;" d="M836 540L836 541L839 541L836 540z"/>
<path style="fill:#81767d; stroke:none;" d="M839 540L840 541L839 540z"/>
<path style="fill:#523a4f; stroke:none;" d="M840 540L841 541L840 540z"/>
<path style="fill:#81767d; stroke:none;" d="M841 540L842 541L841 540z"/>
<path style="fill:#523a4f; stroke:none;" d="M842.667 540.333L843.333 540.667L842.667 540.333z"/>
<path style="fill:#81767d; stroke:none;" d="M844 540L845 541L844 540z"/>
<path style="fill:#523a4f; stroke:none;" d="M845 540L846 541L845 540z"/>
<path style="fill:#81767d; stroke:none;" d="M846.667 540.333L847.333 540.667L846.667 540.333z"/>
<path style="fill:#523a4f; stroke:none;" d="M848 540L848 541L851 541L848 540z"/>
<path style="fill:#81767d; stroke:none;" d="M851 540L852 541L851 540z"/>
<path style="fill:#523a4f; stroke:none;" d="M852 540L853 541L852 540z"/>
<path style="fill:#81767d; stroke:none;" d="M853 540L854 541L853 540z"/>
<path style="fill:#523a4f; stroke:none;" d="M854 540L855 541L854 540z"/>
<path style="fill:#81767d; stroke:none;" d="M855 540L856 541L855 540z"/>
<path style="fill:#523a4f; stroke:none;" d="M856 540L856 541L863 541L856 540z"/>
<path style="fill:#81767d; stroke:none;" d="M863.667 540.333L864.333 540.667L863.667 540.333z"/>
<path style="fill:#523a4f; stroke:none;" d="M865 540L866 541L865 540z"/>
<path style="fill:#81767d; stroke:none;" d="M866 540L866 541L870 541L866 540z"/>
<path style="fill:#523a4f; stroke:none;" d="M870 540L871 541L870 540z"/>
<path style="fill:#81767d; stroke:none;" d="M871 540L872 541L871 540z"/>
<path style="fill:#523a4f; stroke:none;" d="M872 540L872 541L875 541L872 540z"/>
<path style="fill:#81767d; stroke:none;" d="M875 540L876 541L875 540z"/>
<path style="fill:#523a4f; stroke:none;" d="M876 540L876 541L887 541L876 540z"/>
<path style="fill:#81767d; stroke:none;" d="M887.667 540.333L888.333 540.667L887.667 540.333z"/>
<path style="fill:#523a4f; stroke:none;" d="M889.667 540.333L890.333 540.667L889.667 540.333z"/>
<path style="fill:#81767d; stroke:none;" d="M891.667 540.333L892.333 540.667L891.667 540.333z"/>
<path style="fill:#523a4f; stroke:none;" d="M893 540L894 541L893 540z"/>
<path style="fill:#81767d; stroke:none;" d="M894 540L895 541L894 540z"/>
<path style="fill:#523a4f; stroke:none;" d="M895 540L896 541L895 540z"/>
<path style="fill:#81767d; stroke:none;" d="M896 540L897 541L896 540z"/>
<path style="fill:#523a4f; stroke:none;" d="M897 540L897 541L904 541L897 540z"/>
<path style="fill:#81767d; stroke:none;" d="M904 540L905 541L904 540z"/>
<path style="fill:#523a4f; stroke:none;" d="M905 540L906 541L905 540z"/>
<path style="fill:#81767d; stroke:none;" d="M906 540L907 541L906 540z"/>
<path style="fill:#523a4f; stroke:none;" d="M907 540L908 541L907 540z"/>
<path style="fill:#81767d; stroke:none;" d="M908.667 540.333L909.333 540.667L908.667 540.333z"/>
<path style="fill:#523a4f; stroke:none;" d="M910 540L911 541L910 540z"/>
<path style="fill:#81767d; stroke:none;" d="M911 540L912 541L911 540z"/>
<path style="fill:#523a4f; stroke:none;" d="M912 540L912 541L926 541L912 540z"/>
<path style="fill:#81767d; stroke:none;" d="M926 540L927 541L926 540z"/>
<path style="fill:#523a4f; stroke:none;" d="M927 540L928 541L927 540z"/>
<path style="fill:#81767d; stroke:none;" d="M928.667 540.333L929.333 540.667L928.667 540.333z"/>
<path style="fill:#523a4f; stroke:none;" d="M930.667 540.333L931.333 540.667L930.667 540.333z"/>
<path style="fill:#81767d; stroke:none;" d="M932.667 540.333L933.333 540.667L932.667 540.333z"/>
<path style="fill:#523a4f; stroke:none;" d="M934 540L935 541L934 540z"/>
<path style="fill:#81767d; stroke:none;" d="M935 540L936 541L935 540z"/>
<path style="fill:#523a4f; stroke:none;" d="M936 540L936 541L945 541L936 540z"/>
<path style="fill:#81767d; stroke:none;" d="M945.667 540.333L946.333 540.667L945.667 540.333z"/>
<path style="fill:#523a4f; stroke:none;" d="M947 540L948 541L947 540z"/>
<path style="fill:#81767d; stroke:none;" d="M948 540L948 541L951 541L948 540z"/>
<path style="fill:#523a4f; stroke:none;" d="M951 540L952 541L951 540z"/>
<path style="fill:#81767d; stroke:none;" d="M952 540L953 541L952 540z"/>
<path style="fill:#523a4f; stroke:none;" d="M953 540L953 541L969 541L953 540z"/>
<path style="fill:#81767d; stroke:none;" d="M969 540L970 541L969 540M323 542L323 570L324 570L323 542z"/>
<path style="fill:#f3f8b7; stroke:none;" d="M140 570L141 571L140 570z"/>
<path style="fill:#523a4f; stroke:none;" d="M141 570L142 571L141 570z"/>
<path style="fill:#81767d; stroke:none;" d="M142 570L143 571L142 570z"/>
<path style="fill:#523a4f; stroke:none;" d="M143 570L143 571L150 571L143 570z"/>
<path style="fill:#81767d; stroke:none;" d="M150 570L151 571L150 570z"/>
<path style="fill:#523a4f; stroke:none;" d="M151 570L152 571L151 570z"/>
<path style="fill:#81767d; stroke:none;" d="M152 570L153 571L152 570z"/>
<path style="fill:#523a4f; stroke:none;" d="M153 570L154 571L153 570z"/>
<path style="fill:#81767d; stroke:none;" d="M154 570L155 571L154 570z"/>
<path style="fill:#523a4f; stroke:none;" d="M155 570L155 571L159 571L155 570z"/>
<path style="fill:#81767d; stroke:none;" d="M159 570L160 571L159 570z"/>
<path style="fill:#523a4f; stroke:none;" d="M160 570L160 571L164 571L160 570z"/>
<path style="fill:#81767d; stroke:none;" d="M164 570L165 571L164 570z"/>
<path style="fill:#523a4f; stroke:none;" d="M165 570L165 571L169 571L165 570z"/>
<path style="fill:#81767d; stroke:none;" d="M169.667 570.333L170.333 570.667L169.667 570.333z"/>
<path style="fill:#523a4f; stroke:none;" d="M171.667 570.333L172.333 570.667L171.667 570.333z"/>
<path style="fill:#81767d; stroke:none;" d="M173 570L173 571L176 571L173 570z"/>
<path style="fill:#523a4f; stroke:none;" d="M176 570L177 571L176 570z"/>
<path style="fill:#81767d; stroke:none;" d="M177.667 570.333L178.333 570.667L177.667 570.333z"/>
<path style="fill:#523a4f; stroke:none;" d="M179 570L180 571L179 570z"/>
<path style="fill:#81767d; stroke:none;" d="M180.667 570.333L181.333 570.667L180.667 570.333z"/>
<path style="fill:#523a4f; stroke:none;" d="M182 570L183 571L182 570z"/>
<path style="fill:#81767d; stroke:none;" d="M183 570L183 571L186 571L183 570z"/>
<path style="fill:#523a4f; stroke:none;" d="M186.667 570.333L187.333 570.667L186.667 570.333z"/>
<path style="fill:#81767d; stroke:none;" d="M188.667 570.333L189.333 570.667L188.667 570.333z"/>
<path style="fill:#523a4f; stroke:none;" d="M190 570L191 571L190 570z"/>
<path style="fill:#81767d; stroke:none;" d="M191 570L192 571L191 570z"/>
<path style="fill:#523a4f; stroke:none;" d="M192 570L193 571L192 570z"/>
<path style="fill:#81767d; stroke:none;" d="M193.667 570.333L194.333 570.667L193.667 570.333z"/>
<path style="fill:#523a4f; stroke:none;" d="M195.667 570.333L196.333 570.667L195.667 570.333z"/>
<path style="fill:#81767d; stroke:none;" d="M197 570L198 571L197 570z"/>
<path style="fill:#523a4f; stroke:none;" d="M198 570L199 571L198 570z"/>
<path style="fill:#81767d; stroke:none;" d="M199 570L199 571L202 571L199 570z"/>
<path style="fill:#523a4f; stroke:none;" d="M202 570L202 571L206 571L202 570z"/>
<path style="fill:#81767d; stroke:none;" d="M206 570L207 571L206 570z"/>
<path style="fill:#523a4f; stroke:none;" d="M207 570L208 571L207 570z"/>
<path style="fill:#81767d; stroke:none;" d="M208 570L208 571L211 571L208 570z"/>
<path style="fill:#523a4f; stroke:none;" d="M211.667 570.333L212.333 570.667L211.667 570.333z"/>
<path style="fill:#81767d; stroke:none;" d="M213 570L213 571L217 571L213 570z"/>
<path style="fill:#523a4f; stroke:none;" d="M217 570L217 571L221 571L217 570z"/>
<path style="fill:#81767d; stroke:none;" d="M221 570L221 571L224 571L221 570z"/>
<path style="fill:#523a4f; stroke:none;" d="M224 570L224 571L230 571L224 570z"/>
<path style="fill:#81767d; stroke:none;" d="M230.667 570.333L231.333 570.667L230.667 570.333z"/>
<path style="fill:#523a4f; stroke:none;" d="M232.667 570.333L233.333 570.667L232.667 570.333z"/>
<path style="fill:#81767d; stroke:none;" d="M234 570L235 571L234 570z"/>
<path style="fill:#523a4f; stroke:none;" d="M235 570L236 571L235 570z"/>
<path style="fill:#81767d; stroke:none;" d="M236.667 570.333L237.333 570.667L236.667 570.333z"/>
<path style="fill:#523a4f; stroke:none;" d="M238 570L239 571L238 570z"/>
<path style="fill:#81767d; stroke:none;" d="M239 570L239 571L242 571L239 570z"/>
<path style="fill:#523a4f; stroke:none;" d="M242.667 570.333L243.333 570.667L242.667 570.333z"/>
<path style="fill:#81767d; stroke:none;" d="M244 570L244 571L248 571L244 570z"/>
<path style="fill:#523a4f; stroke:none;" d="M248 570L249 571L248 570z"/>
<path style="fill:#81767d; stroke:none;" d="M249 570L249 571L253 571L249 570z"/>
<path style="fill:#523a4f; stroke:none;" d="M253.667 570.333L254.333 570.667L253.667 570.333z"/>
<path style="fill:#81767d; stroke:none;" d="M255 570L255 571L258 571L255 570z"/>
<path style="fill:#523a4f; stroke:none;" d="M258.667 570.333L259.333 570.667L258.667 570.333z"/>
<path style="fill:#81767d; stroke:none;" d="M260 570L260 571L263 571L260 570z"/>
<path style="fill:#523a4f; stroke:none;" d="M263 570L264 571L263 570z"/>
<path style="fill:#81767d; stroke:none;" d="M264.667 570.333L265.333 570.667L264.667 570.333M602.667 570.333L603.333 570.667L602.667 570.333z"/>
<path style="fill:#523a4f; stroke:none;" d="M604.667 570.333L605.333 570.667L604.667 570.333z"/>
<path style="fill:#81767d; stroke:none;" d="M606 570L607 571L606 570z"/>
<path style="fill:#523a4f; stroke:none;" d="M607 570L608 571L607 570z"/>
<path style="fill:#81767d; stroke:none;" d="M608 570L609 571L608 570z"/>
<path style="fill:#523a4f; stroke:none;" d="M609.667 570.333L610.333 570.667L609.667 570.333z"/>
<path style="fill:#81767d; stroke:none;" d="M611 570L611 571L614 571L611 570z"/>
<path style="fill:#523a4f; stroke:none;" d="M614.667 570.333L615.333 570.667L614.667 570.333z"/>
<path style="fill:#81767d; stroke:none;" d="M616 570L617 571L616 570z"/>
<path style="fill:#523a4f; stroke:none;" d="M617 570L618 571L617 570z"/>
<path style="fill:#81767d; stroke:none;" d="M618 570L619 571L618 570z"/>
<path style="fill:#523a4f; stroke:none;" d="M619 570L620 571L619 570z"/>
<path style="fill:#81767d; stroke:none;" d="M620 570L621 571L620 570z"/>
<path style="fill:#523a4f; stroke:none;" d="M621 570L621 571L624 571L621 570z"/>
<path style="fill:#81767d; stroke:none;" d="M624 570L625 571L624 570z"/>
<path style="fill:#523a4f; stroke:none;" d="M625.667 570.333L626.333 570.667L625.667 570.333z"/>
<path style="fill:#81767d; stroke:none;" d="M627 570L628 571L627 570z"/>
<path style="fill:#523a4f; stroke:none;" d="M628 570L629 571L628 570z"/>
<path style="fill:#81767d; stroke:none;" d="M629 570L630 571L629 570z"/>
<path style="fill:#523a4f; stroke:none;" d="M630 570L630 571L633 571L630 570z"/>
<path style="fill:#81767d; stroke:none;" d="M633 570L634 571L633 570z"/>
<path style="fill:#523a4f; stroke:none;" d="M634 570L634 571L637 571L634 570z"/>
<path style="fill:#81767d; stroke:none;" d="M637 570L638 571L637 570z"/>
<path style="fill:#523a4f; stroke:none;" d="M638 570L639 571L638 570z"/>
<path style="fill:#81767d; stroke:none;" d="M639.667 570.333L640.333 570.667L639.667 570.333z"/>
<path style="fill:#523a4f; stroke:none;" d="M641.667 570.333L642.333 570.667L641.667 570.333z"/>
<path style="fill:#81767d; stroke:none;" d="M643 570L644 571L643 570z"/>
<path style="fill:#523a4f; stroke:none;" d="M644.667 570.333L645.333 570.667L644.667 570.333z"/>
<path style="fill:#81767d; stroke:none;" d="M646.667 570.333L647.333 570.667L646.667 570.333z"/>
<path style="fill:#523a4f; stroke:none;" d="M648.667 570.333L649.333 570.667L648.667 570.333z"/>
<path style="fill:#81767d; stroke:none;" d="M650.667 570.333L651.333 570.667L650.667 570.333z"/>
<path style="fill:#523a4f; stroke:none;" d="M652 570L653 571L652 570z"/>
<path style="fill:#81767d; stroke:none;" d="M653 570L653 571L656 571L653 570z"/>
<path style="fill:#523a4f; stroke:none;" d="M656 570L657 571L656 570z"/>
<path style="fill:#81767d; stroke:none;" d="M657.667 570.333L658.333 570.667L657.667 570.333z"/>
<path style="fill:#523a4f; stroke:none;" d="M659 570L660 571L659 570z"/>
<path style="fill:#81767d; stroke:none;" d="M660 570L660 571L668 571L660 570z"/>
<path style="fill:#523a4f; stroke:none;" d="M668.667 570.333L669.333 570.667L668.667 570.333z"/>
<path style="fill:#81767d; stroke:none;" d="M670 570L670 571L675 571L670 570z"/>
<path style="fill:#523a4f; stroke:none;" d="M675 570L676 571L675 570z"/>
<path style="fill:#81767d; stroke:none;" d="M676 570L676 571L683 571L676 570z"/>
<path style="fill:#523a4f; stroke:none;" d="M683 570L683 571L686 571L683 570z"/>
<path style="fill:#81767d; stroke:none;" d="M686 570L686 571L690 571L686 570z"/>
<path style="fill:#523a4f; stroke:none;" d="M690 570L690 571L700 571L690 570z"/>
<path style="fill:#81767d; stroke:none;" d="M700 570L701 571L700 570z"/>
<path style="fill:#523a4f; stroke:none;" d="M701 570L701 571L714 571L701 570z"/>
<path style="fill:#81767d; stroke:none;" d="M714 570L714 571L720 571L714 570z"/>
<path style="fill:#523a4f; stroke:none;" d="M720 570L721 571L720 570z"/>
<path style="fill:#81767d; stroke:none;" d="M721 570L721 571L729 571L721 570z"/>
<path style="fill:#523a4f; stroke:none;" d="M729.667 570.333L730.333 570.667L729.667 570.333z"/>
<path style="fill:#81767d; stroke:none;" d="M731 570L731 571L735 571L731 570z"/>
<path style="fill:#523a4f; stroke:none;" d="M735 570L736 571L735 570z"/>
<path style="fill:#81767d; stroke:none;" d="M736 570L736 571L739 571L736 570z"/>
<path style="fill:#523a4f; stroke:none;" d="M739 570L739 571L742 571L739 570z"/>
<path style="fill:#81767d; stroke:none;" d="M742 570L742 571L751 571L742 570z"/>
<path style="fill:#523a4f; stroke:none;" d="M751 570L752 571L751 570z"/>
<path style="fill:#81767d; stroke:none;" d="M752 570L752 571L760 571L752 570z"/>
<path style="fill:#523a4f; stroke:none;" d="M760.667 570.333L761.333 570.667L760.667 570.333z"/>
<path style="fill:#81767d; stroke:none;" d="M762 570L762 571L766 571L762 570z"/>
<path style="fill:#523a4f; stroke:none;" d="M766 570L767 571L766 570z"/>
<path style="fill:#81767d; stroke:none;" d="M767 570L767 571L771 571L767 570z"/>
<path style="fill:#523a4f; stroke:none;" d="M771.667 570.333L772.333 570.667L771.667 570.333z"/>
<path style="fill:#81767d; stroke:none;" d="M773 570L773 571L776 571L773 570z"/>
<path style="fill:#523a4f; stroke:none;" d="M776 570L777 571L776 570z"/>
<path style="fill:#81767d; stroke:none;" d="M777 570L777 571L781 571L777 570z"/>
<path style="fill:#523a4f; stroke:none;" d="M781.667 570.333L782.333 570.667L781.667 570.333z"/>
<path style="fill:#81767d; stroke:none;" d="M783 570L783 571L787 571L783 570z"/>
<path style="fill:#523a4f; stroke:none;" d="M787.667 570.333L788.333 570.667L787.667 570.333z"/>
<path style="fill:#81767d; stroke:none;" d="M789 570L790 571L789 570z"/>
<path style="fill:#523a4f; stroke:none;" d="M790.667 570.333L791.333 570.667L790.667 570.333z"/>
<path style="fill:#81767d; stroke:none;" d="M792.667 570.333L793.333 570.667L792.667 570.333z"/>
<path style="fill:#523a4f; stroke:none;" d="M794 570L795 571L794 570z"/>
<path style="fill:#81767d; stroke:none;" d="M795 570L795 571L799 571L795 570z"/>
<path style="fill:#523a4f; stroke:none;" d="M799 570L799 571L808 571L799 570z"/>
<path style="fill:#81767d; stroke:none;" d="M808 570L808 571L813 571L808 570z"/>
<path style="fill:#523a4f; stroke:none;" d="M813 570L814 571L813 570z"/>
<path style="fill:#81767d; stroke:none;" d="M814 570L814 571L823 571L814 570z"/>
<path style="fill:#523a4f; stroke:none;" d="M823 570L824 571L823 570z"/>
<path style="fill:#81767d; stroke:none;" d="M824 570L825 571L824 570z"/>
<path style="fill:#523a4f; stroke:none;" d="M825 570L826 571L825 570z"/>
<path style="fill:#81767d; stroke:none;" d="M826 570L826 571L830 571L826 570z"/>
<path style="fill:#523a4f; stroke:none;" d="M830 570L830 571L833 571L830 570z"/>
<path style="fill:#81767d; stroke:none;" d="M833 570L834 571L833 570z"/>
<path style="fill:#523a4f; stroke:none;" d="M834.667 570.333L835.333 570.667L834.667 570.333z"/>
<path style="fill:#81767d; stroke:none;" d="M836 570L837 571L836 570z"/>
<path style="fill:#523a4f; stroke:none;" d="M837.667 570.333L838.333 570.667L837.667 570.333z"/>
<path style="fill:#81767d; stroke:none;" d="M839 570L840 571L839 570z"/>
<path style="fill:#523a4f; stroke:none;" d="M840.667 570.333L841.333 570.667L840.667 570.333z"/>
<path style="fill:#81767d; stroke:none;" d="M842 570L842 571L847 571L842 570z"/>
<path style="fill:#523a4f; stroke:none;" d="M847 570L847 571L851 571L847 570z"/>
<path style="fill:#81767d; stroke:none;" d="M851 570L852 571L851 570z"/>
<path style="fill:#523a4f; stroke:none;" d="M852 570L853 571L852 570z"/>
<path style="fill:#81767d; stroke:none;" d="M853.667 570.333L854.333 570.667L853.667 570.333z"/>
<path style="fill:#523a4f; stroke:none;" d="M855 570L856 571L855 570z"/>
<path style="fill:#81767d; stroke:none;" d="M856 570L856 571L861 571L856 570z"/>
<path style="fill:#523a4f; stroke:none;" d="M861 570L861 571L865 571L861 570z"/>
<path style="fill:#81767d; stroke:none;" d="M865 570L866 571L865 570z"/>
<path style="fill:#523a4f; stroke:none;" d="M866 570L866 571L869 571L866 570z"/>
<path style="fill:#81767d; stroke:none;" d="M869 570L870 571L869 570z"/>
<path style="fill:#523a4f; stroke:none;" d="M870 570L871 571L870 570z"/>
<path style="fill:#81767d; stroke:none;" d="M871 570L872 571L871 570z"/>
<path style="fill:#523a4f; stroke:none;" d="M872.667 570.333L873.333 570.667L872.667 570.333z"/>
<path style="fill:#81767d; stroke:none;" d="M874 570L875 571L874 570z"/>
<path style="fill:#523a4f; stroke:none;" d="M875 570L876 571L875 570z"/>
<path style="fill:#81767d; stroke:none;" d="M876.667 570.333L877.333 570.667L876.667 570.333z"/>
<path style="fill:#523a4f; stroke:none;" d="M878 570L878 571L881 571L878 570z"/>
<path style="fill:#81767d; stroke:none;" d="M881 570L882 571L881 570z"/>
<path style="fill:#523a4f; stroke:none;" d="M882 570L883 571L882 570z"/>
<path style="fill:#81767d; stroke:none;" d="M883 570L884 571L883 570z"/>
<path style="fill:#523a4f; stroke:none;" d="M884 570L885 571L884 570z"/>
<path style="fill:#81767d; stroke:none;" d="M885 570L886 571L885 570z"/>
<path style="fill:#523a4f; stroke:none;" d="M886 570L886 571L893 571L886 570z"/>
<path style="fill:#81767d; stroke:none;" d="M893.667 570.333L894.333 570.667L893.667 570.333z"/>
<path style="fill:#523a4f; stroke:none;" d="M895 570L896 571L895 570z"/>
<path style="fill:#81767d; stroke:none;" d="M896 570L896 571L900 571L896 570z"/>
<path style="fill:#523a4f; stroke:none;" d="M900 570L901 571L900 570z"/>
<path style="fill:#81767d; stroke:none;" d="M901 570L902 571L901 570z"/>
<path style="fill:#523a4f; stroke:none;" d="M902 570L902 571L905 571L902 570z"/>
<path style="fill:#81767d; stroke:none;" d="M905 570L906 571L905 570z"/>
<path style="fill:#523a4f; stroke:none;" d="M906 570L906 571L917 571L906 570z"/>
<path style="fill:#81767d; stroke:none;" d="M917.667 570.333L918.333 570.667L917.667 570.333z"/>
<path style="fill:#523a4f; stroke:none;" d="M919.667 570.333L920.333 570.667L919.667 570.333z"/>
<path style="fill:#81767d; stroke:none;" d="M921.667 570.333L922.333 570.667L921.667 570.333z"/>
<path style="fill:#523a4f; stroke:none;" d="M923 570L924 571L923 570z"/>
<path style="fill:#81767d; stroke:none;" d="M924 570L925 571L924 570z"/>
<path style="fill:#523a4f; stroke:none;" d="M925 570L926 571L925 570z"/>
<path style="fill:#81767d; stroke:none;" d="M926 570L927 571L926 570z"/>
<path style="fill:#523a4f; stroke:none;" d="M927 570L927 571L934 571L927 570z"/>
<path style="fill:#81767d; stroke:none;" d="M934 570L935 571L934 570z"/>
<path style="fill:#523a4f; stroke:none;" d="M935 570L936 571L935 570z"/>
<path style="fill:#81767d; stroke:none;" d="M936 570L937 571L936 570z"/>
<path style="fill:#523a4f; stroke:none;" d="M937 570L938 571L937 570z"/>
<path style="fill:#81767d; stroke:none;" d="M938.667 570.333L939.333 570.667L938.667 570.333z"/>
<path style="fill:#523a4f; stroke:none;" d="M940 570L941 571L940 570z"/>
<path style="fill:#81767d; stroke:none;" d="M941 570L942 571L941 570z"/>
<path style="fill:#523a4f; stroke:none;" d="M942 570L942 571L958 571L942 570z"/>
<path style="fill:#81767d; stroke:none;" d="M958.667 570.333L959.333 570.667L958.667 570.333z"/>
<path style="fill:#523a4f; stroke:none;" d="M960.667 570.333L961.333 570.667L960.667 570.333z"/>
<path style="fill:#81767d; stroke:none;" d="M962.667 570.333L963.333 570.667L962.667 570.333z"/>
<path style="fill:#523a4f; stroke:none;" d="M964 570L965 571L964 570z"/>
<path style="fill:#81767d; stroke:none;" d="M965 570L966 571L965 570z"/>
<path style="fill:#523a4f; stroke:none;" d="M966 570L966 571L975 571L966 570z"/>
<path style="fill:#81767d; stroke:none;" d="M975.667 570.333L976.333 570.667L975.667 570.333z"/>
<path style="fill:#523a4f; stroke:none;" d="M977 570L978 571L977 570z"/>
<path style="fill:#81767d; stroke:none;" d="M978 570L978 571L981 571L978 570z"/>
<path style="fill:#523a4f; stroke:none;" d="M981 570L982 571L981 570z"/>
<path style="fill:#81767d; stroke:none;" d="M982 570L983 571L982 570z"/>
<path style="fill:#523a4f; stroke:none;" d="M983 570L983 571L986 571L983 570z"/>
<path style="fill:#81767d; stroke:none;" d="M986 570L987 571L986 570z"/>
<path style="fill:#523a4f; stroke:none;" d="M987 570L987 571L999 571L987 570z"/>
<path style="fill:#81767d; stroke:none;" d="M999 570L1000 571L999 570M322 571L322 578L323 578L322 571M208 579L208 580L211 580L208 579M623.667 579.333L624.333 579.667L623.667 579.333z"/>
<path style="fill:#f3f8b7; stroke:none;" d="M625 579L626 580L625 579z"/>
<path style="fill:#81767d; stroke:none;" d="M206.667 580.333L207.333 580.667L206.667 580.333M626 580L627 581L626 580z"/>
<path style="fill:#f3f8b7; stroke:none;" d="M627 580L628 581L627 580M204 581L203 583L204 581z"/>
<path style="fill:#81767d; stroke:none;" d="M205 581L206 582L205 581M628 581L629 582L628 581M204 582L205 583L204 582M629 582L630 583L629 582M203 583L204 584L203 583M630 583C636.469 607.449 632 637.716 632 663L632 822C637.033 822 643.222 821.059 647.999 822.894C661.722 828.163 656.77 843.156 651 852L689 853L768 853L1026 853L1026 852L652 852L652 851C660.702 845.677 660.291 828.889 651.906 823.344C646.564 819.812 639.093 821 633 821L633 647L633 603C633 596.358 634.363 588.487 630 583M202.333 584.667L202.667 585.333L202.333 584.667z"/>
<path style="fill:#f3f8b7; stroke:none;" d="M631 584L632 585L631 584z"/>
<path style="fill:#81767d; stroke:none;" d="M201 586L201 821L202 821L202 655L202 608L201 586z"/>
<path style="fill:#f3f8b7; stroke:none;" d="M632 586L633 587L632 586z"/>
<path style="fill:#81767d; stroke:none;" d="M414 633L414 634L421 634L414 633M410 634L411 635L410 634z"/>
<path style="fill:#fa68e3; stroke:none;" d="M411 634.529C379.262 641.854 392.525 689.745 424 682.471C455.061 675.293 442.174 627.335 411 634.529z"/>
<path style="fill:#81767d; stroke:none;" d="M424 634L425 635L424 634M407 635L408 636L407 635M427 635L428 636L427 635M405 636L406 637L405 636M429 636L430 637L429 636M403 637L404 638L403 637M402 638L403 639L402 638M432 638L433 639L432 638M433 639L434 640L433 639M436 642L437 643L436 642z"/>
<path style="fill:#f3f8b7; stroke:none;" d="M787 642C782.06 660.868 778.219 677.18 781.583 697C782.218 700.736 781.91 713.373 786 714L787 725L788 725C787.648 707.962 784.913 691.173 786.089 674C786.724 664.736 790.653 650.705 787 642z"/>
<path style="fill:#81767d; stroke:none;" d="M437 643L438 644L437 643M396 644L397 645L396 644M786 645L787 646L786 645M395 646L396 647L395 646M439 646L440 647L439 646M394 648L395 649L394 648M440 648L441 649L440 648M393 650L394 651L393 650M441.333 651.667L441.667 652.333L441.333 651.667M392.333 654.667L392.667 655.333L392.333 654.667M442 656L442 661L443 661L442 656M392.333 661.667L392.667 662.333L392.333 661.667M441.333 664.667L441.667 665.333L441.333 664.667M393 666L394 667L393 666M781 666L782 667L781 666M394 668L395 669L394 668M440 668L441 669L440 668M439 670L440 671L439 670M396 672L397 673L396 672M437 673L438 674L437 673M436 674L437 675L436 674M433 677L434 678L433 677M402 678L403 679L402 678M432 678L433 679L432 678M403 679L404 680L403 679M405 680L406 681L405 680M429 680L430 681L429 680M407 681L408 682L407 681M427 681L428 682L427 681z"/>
<path style="fill:#f3f8b7; stroke:none;" d="M796 681C793.085 697.983 792.828 712.977 796 730L797 730L796.089 701L796 681z"/>
<path style="fill:#81767d; stroke:none;" d="M410 682L411 683L410 682M424 682L425 683L424 682M415 683L415 684L420 684L415 683M795.333 686.667L795.667 687.333L795.333 686.667M781 689L782 690L781 689M785.333 714.667L785.667 715.333L785.333 714.667M794 714L794 717L795 717L794 714z"/>
<path style="fill:#f3f8b7; stroke:none;" d="M751 753L754 750L751 753M834 750L837 753L834 750M751 763L754 766L754 765L751 763M836 763L834 766L836 763M760 766L761 767L760 766M828 766L829 767L828 766M762 769L762 772L829 772C825.851 767.142 817.215 769 812 769L762 769M760 791L760 814C779.769 818.091 797.913 822.923 818 816.653C820.78 815.785 825.188 815.031 826.972 812.49C829.492 808.901 829.28 794.691 825.682 791.938C822.054 789.161 815.379 788.819 811 788.081C793.1 785.065 777.291 791.2 760 791M192.667 821.333L193.333 821.667L192.667 821.333z"/>
<path style="fill:#81767d; stroke:none;" d="M194 821L194 822L201 822L194 821z"/>
<path style="fill:#f3f8b7; stroke:none;" d="M648 821L649 822L648 821M190 822L191 823L190 822z"/>
<path style="fill:#81767d; stroke:none;" d="M191 822L191 823L194 823L191 822z"/>
<path style="fill:#f3f8b7; stroke:none;" d="M651 822L652 823L651 822z"/>
<path style="fill:#81767d; stroke:none;" d="M188 825L191 823L188 825z"/>
<path style="fill:#f3f8b7; stroke:none;" d="M652 823L653 824L652 823M653 824L654 825L653 824z"/>
<path style="fill:#81767d; stroke:none;" d="M187 825L188 826L187 825M186 826L185 830L186 830L186 826z"/>
<path style="fill:#f3f8b7; stroke:none;" d="M655 826L656 827L655 826M185 827L186 828L185 827M656 827L657 828L656 827M184.333 829.667L184.667 830.333L184.333 829.667M657 830L658 831L657 830z"/>
<path style="fill:#81767d; stroke:none;" d="M184 831L184 844L185 844L184 831z"/>
<path style="fill:#f3f8b7; stroke:none;" d="M184 844L185 845L184 844M657 844L658 845L657 844z"/>
<path style="fill:#81767d; stroke:none;" d="M185.333 845.667L185.667 846.333L185.333 845.667z"/>
<path style="fill:#f3f8b7; stroke:none;" d="M656 846L657 847L656 846z"/>
<path style="fill:#81767d; stroke:none;" d="M186 847L187 848L186 847z"/>
<path style="fill:#f3f8b7; stroke:none;" d="M186 848L187 849L186 848M655 848L656 849L655 848z"/>
<path style="fill:#81767d; stroke:none;" d="M187 849L188 850L187 849z"/>
<path style="fill:#f3f8b7; stroke:none;" d="M654 849L655 850L654 849M761 849L764 852L764 851L761 849M827 849L825 852C827.251 851.527 828.118 851.14 827 849z"/>
<path style="fill:#81767d; stroke:none;" d="M188 850C188 853.251 183.718 852 181 852L157 852L54 852L54 853L190 853L188 850z"/>
<path style="fill:#f3f8b7; stroke:none;" d="M188 851L189 852L188 851M652 851L653 852L652 851z"/>
</svg>
