<svg xmlns="http://www.w3.org/2000/svg" class="featureImage_G8m8" data-name="Layer 1" viewBox="0 0 971 628" alt="Focus on What Matters"><path fill="#cacaca" d="M733 500a250 250 0 01-2-54l2-30c-11 23-8 54 0 84zm9 5a183 183 0 01-1-32l1-18c-5 14-4 32 0 50z"></path><path fill="#f2f2f2" d="M782 527v10a3 3 0 01-3 3h-5a1 1 0 00-1 1v82a3 3 0 01-3 3h-61a3 3 0 01-3-3v-82a1 1 0 00-1-1h-6a3 3 0 01-3-3v-10a3 3 0 013-3h80a3 3 0 013 3z"></path><path fill="#e6e6e" d="M707 543h67v3h-67zm66 44c-22 9-45 9-68 0v-21a107 107 0 0168 0z"></path><circle cx="451.5" cy="214" r="36.4" fill="#2f2e41"></circle><path fill="#c7209a" d="M462 179a36 36 0 0132 53 36 36 0 10-61-40 36 36 0 0129-13z"></path><circle cx="383.5" cy="107" r="106.9" fill="#2f2e41"></circle><path fill="#c7209a" d="M300 41a107 107 0 01148-12l-3-2a107 107 0 00-142 160l3 2a107 107 0 01-6-148z"></path><circle cx="382.6" cy="144.1" r="68.9" fill="#ffb8b8"></circle><path fill="#cacaca" d="M418 232l-74 3s6 38-34 42-76-8-90 20-9 124-9 124 28 97 49 112 212-5 212-5l80-101-3-78c-1-40-38-70-78-63l-2 1s-9-7-33-19c-15-7-18-36-18-36z"></path><path fill="#2f2e41" d="M258 275s17 32 10 77 23 141 23 141l22-5s-15-95-11-116 5-86-13-97-31 0-31 0zm210 17l7 200 15 9s20-220 10-220h-23a10 10 0 00-9 10v1z"></path><circle cx="301.2" cy="479.5" r="9.1" fill="#6c63ff"></circle><circle cx="482.4" cy="488.6" r="9.1" fill="#6c63ff"></circle><path fill="#2f2e41" d="M324 58v69h16l20-22-3 22h71l-5-22 9 22h11V58H324z"></path><ellipse cx="312.8" cy="129.6" fill="#ffb8b8" rx="5.4" ry="10"></ellipse><ellipse cx="452.3" cy="129.6" fill="#ffb8b8" rx="5.4" ry="10"></ellipse><path fill="#4f093c" d="M603 608v7a13 13 0 01-1 4 14 14 0 01-1 2 13 13 0 01-11 7H143a13 13 0 01-11-7 14 14 0 01-1-2 13 13 0 01-1-4v-7a13 13 0 0113-13h26v-3h14v3h9v-3h14v3h9v-3h14v3h9v-3h14v3h9v-3h14v3h9v-3h14v3h9v-3h105a1 1 0 011 0v3h8v-3a1 1 0 011 0h13a1 1 0 011 0v3h8v-3a1 1 0 011 0h13a1 1 0 011 0v3h8v-3a1 1 0 011 0h13a1 1 0 011 0v3h8v-3a1 1 0 011 0h13a1 1 0 011 0v3h8v-3a1 1 0 011 0h13a1 1 0 011 0v3h8v-3a1 1 0 011 0h13a1 1 0 011 0v3h39a13 13 0 0113 13z"></path><path fill="#4f093c" d="M0 626h971v2H0zm567-273H158a11 11 0 00-11 11v228a11 11 0 0011 11h409a11 11 0 0011-11V364a11 11 0 00-11-11z"></path><circle cx="363" cy="432.4" r="25" fill="#c7209a"></circle><path fill="#3f3d56" d="M518 267l126-127h60v-2h-61L516 266l2 1z"></path><path fill="#c7209a" d="M776 88h146v13H776z"></path><path fill="#3f3d56" d="M759 109h-31V78h31zm-29-2h27V80h-27z"></path><path fill="#c7209a" d="M776 131h146v13H776z"></path><path fill="#3f3d56" d="M759 152h-31v-30h31zm-29-2h27v-26h-27z"></path><path fill="#c7209a" d="M776 175h146v13H776z"></path><path fill="#3f3d56" d="M759 196h-31v-31h31zm-29-2h27v-27h-27z"></path></svg>
