<svg xmlns="http://www.w3.org/2000/svg" class="featureImage_G8m8" data-name="Layer 1" viewBox="0 0 945 583" alt="Maintainable"><path fill="#e6e6e6" d="M95 535a24 24 0 0024-4c8-7 11-18 13-29l6-31-13 9c-9 7-19 13-25 23s-10 21-4 32" data-name="Path 438"></path><path fill="#f2f2f2" d="M97 575c-1-12-3-24-2-36 1-11 4-21 11-30a49 49 0 0113-11c1-1 2 1 1 2a47 47 0 00-19 22c-4 11-4 22-4 33l3 19a1 1 0 01-1 2 1 1 0 01-2-1z" data-name="Path 439"></path><path fill="#e6e6e6" d="M109 556a18 18 0 0016 8c7-1 14-6 20-11l17-16h-11c-8-1-17-1-25 2s-15 8-17 17" data-name="Path 442"></path><path fill="#f2f2f2" d="M93 582c8-14 17-30 33-35a37 37 0 0114-1v2a34 34 0 00-23 6c-6 4-11 10-15 17l-7 12c-1 1-3 0-2-1z" data-name="Path 443"></path><path fill="#e6e6e6" d="M881 552a18 18 0 01-17 3c-8-2-13-9-17-15l-13-20 11 3c8 1 17 3 24 8s12 12 12 20" data-name="Path 442"></path><path fill="#f2f2f2" d="M890 581c-4-16-9-33-23-42a37 37 0 00-13-5c-2 0-2 2-1 3a34 34 0 0120 11c5 6 9 13 11 20l4 13c0 2 2 1 2 0z" data-name="Path 443"></path><path fill="#f1f1f1" d="M731 355H467a8 8 0 01-8-8v-89a8 8 0 018-8h264a8 8 0 018 8v89a8 8 0 01-8 8z"></path><path fill="#6c63ff" d="M500 274h70v8h-70z"></path><circle cx="662.7" cy="278.7" r="4.8" fill="#6c63ff"></circle><circle cx="678.6" cy="278.7" r="4.8" fill="#6c63ff"></circle><circle cx="694.5" cy="278.7" r="4.8" fill="#6c63ff"></circle><path fill="#f1f1f1" d="M731 468H467a8 8 0 01-8-8v-89a8 8 0 018-8h264a8 8 0 018 8v89a8 8 0 01-8 8z"></path><path fill="#6c63ff" d="M500 387h70v8h-70z"></path><circle cx="662.7" cy="391.7" r="4.8" fill="#6c63ff"></circle><circle cx="678.6" cy="391.7" r="4.8" fill="#6c63ff"></circle><circle cx="694.5" cy="391.7" r="4.8" fill="#6c63ff"></circle><path fill="#f1f1f1" d="M731 581H467a8 8 0 01-8-8v-89a8 8 0 018-8h264a8 8 0 018 8v89a8 8 0 01-8 8z"></path><path fill="#6c63ff" d="M500 500h70v8h-70z"></path><circle cx="662.7" cy="504.8" r="4.8" fill="#6c63ff"></circle><circle cx="678.6" cy="504.8" r="4.8" fill="#6c63ff"></circle><circle cx="694.5" cy="504.8" r="4.8" fill="#6c63ff"></circle><path fill="#3f3d56" d="M632 163h-1a4 4 0 00-5 0l-59 81h-7v-2a1 1 0 00-1-1h-4a1 1 0 00-2 1v2h-2v-2a1 1 0 00-1-1h-4a1 1 0 00-2 1v2h-2v-2a1 1 0 00-1-1h-4a1 1 0 00-2 1v2h-2v-2a1 1 0 00-1-1h-4a1 1 0 00-2 1v2h-2v-2a1 1 0 00-1-1h-4a1 1 0 00-2 1v2h-2v-2a1 1 0 00-1-1h-4a1 1 0 00-2 1v2h-2v-2a1 1 0 00-1-1h-4a1 1 0 00-2 1v2h-2v-2a1 1 0 00-1-1h-4a1 1 0 00-2 1v2h-2v-2a1 1 0 00-1-1h-4a1 1 0 00-2 1v2h-2v-2a1 1 0 00-1-1h-4a1 1 0 00-2 1v2h-3a4 4 0 00-3 3v4a4 4 0 003 3h97a5 5 0 005-4l61-82a4 4 0 000-5z"></path><path fill="#ffb7b7" d="M256 551l12 6 29-43-18-10-23 47z"></path><path fill="#2f2e41" d="M254 545l24 12a17 17 0 017 23v1l-39-20z"></path><path fill="#ffb7b7" d="M394 568h14l6-52h-20v52z"></path><path fill="#2f2e41" d="M391 563h26a17 17 0 0117 17v1h-43zm-60-420s-9-7-9 10l-1 56 16 53 9-18-4-37zm97 153s10 51-3 93l-7 161-27-2-10-120-9-59-19 54-62 115-28-23s31-86 55-105l12-134z"></path><circle cx="523.5" cy="202.3" r="30.7" fill="#ffb7b7" transform="rotate(-61 326 231)"></circle><path fill="#2f2e41" d="M394 50c3 1 6-3 8-6s2-8 5-10c4-2 10 1 15 0 6-1 9-7 10-13s-2-11-5-16v6a13 13 0 00-6-11l1 10a10 10 0 00-12-9v6c-6-1-13-2-19-1s-13 3-18 7c-8 6-10 17-10 27s5 19 10 28c1 2 2 4 5 5 2 0 4-2 4-4a13 13 0 000-7V52c1-4 3-6 6-7s7 4 5 7z"></path><path fill="#cbcbcb" d="M430 309l-103-6 8-32 94 21 1 17z"></path><path fill="#2f2e41" d="M367 86l6-9 26 12 2 8 33 206-60-3h-17l-5-13-7 12h-16l-17-10 17-49 5-45-8-43s-10-39 29-60z"></path><path fill="#ffb7b7" d="M503 241a10 10 0 01-13-9l-36-10 15-13 32 11a11 11 0 012 21z"></path><path fill="#2f2e41" d="M487 236a6 6 0 01-5 0l-59-22a63 63 0 01-34-29l-25-44a20 20 0 1130-26l43 67 53 32a6 6 0 013 6l-3 12a6 6 0 01-2 3 6 6 0 01-1 1z"></path><path fill="#cbcbcb" d="M944 583H1a1 1 0 010-2h943a1 1 0 010 2z"></path></svg>